<?xml version="1.0" encoding="UTF-8" standalone="no"?>
<!-- Created with Inkscape (http://www.inkscape.org/) -->

<svg
   xmlns:dc="http://purl.org/dc/elements/1.1/"
   xmlns:cc="http://creativecommons.org/ns#"
   xmlns:rdf="http://www.w3.org/1999/02/22-rdf-syntax-ns#"
   xmlns:svg="http://www.w3.org/2000/svg"
   xmlns="http://www.w3.org/2000/svg"
   xmlns:sodipodi="http://sodipodi.sourceforge.net/DTD/sodipodi-0.dtd"
   xmlns:inkscape="http://www.inkscape.org/namespaces/inkscape"
   width="180.03395mm"
   height="173.10168mm"
   viewBox="0 0 180.03395 173.10168"
   version="1.1"
   id="svg3774"
   inkscape:version="0.91 r13725"
   sodipodi:docname="naistlogo.svg">
  <defs
     id="defs3768">
    <pattern
       y="0"
       x="0"
       height="6"
       width="6"
       patternUnits="userSpaceOnUse"
       id="EMFhbasepattern" />
    <pattern
       y="0"
       x="0"
       height="6"
       width="6"
       patternUnits="userSpaceOnUse"
       id="EMFhbasepattern-1" />
  </defs>
  <sodipodi:namedview
     id="base"
     pagecolor="#ffffff"
     bordercolor="#666666"
     borderopacity="1.0"
     inkscape:pageopacity="0.0"
     inkscape:pageshadow="2"
     inkscape:zoom="1.4"
     inkscape:cx="362.42115"
     inkscape:cy="306.48166"
     inkscape:document-units="mm"
     inkscape:current-layer="layer1"
     showgrid="false"
     inkscape:window-width="1451"
     inkscape:window-height="1334"
     inkscape:window-x="319"
     inkscape:window-y="62"
     inkscape:window-maximized="0" />
  <metadata
     id="metadata3771">
    <rdf:RDF>
      <cc:Work
         rdf:about="">
        <dc:format>image/svg+xml</dc:format>
        <dc:type
           rdf:resource="http://purl.org/dc/dcmitype/StillImage" />
        <dc:title />
      </cc:Work>
    </rdf:RDF>
  </metadata>
  <g
     inkscape:label="Layer 1"
     inkscape:groupmode="layer"
     id="layer1"
     transform="translate(-15.149741,-41.712732)">
    <g
       transform="matrix(0.83249733,0,0,0.83249733,16.719909,12.408089)"
       id="g39">
      <path
         style="fill:#75c8b6;stroke-width:0.08693098"
         d="m 122.25726,179.86031 -0.99528,-1.71688 -0.50181,-0.86931 -0.5018,-0.86931 -0.15067,-0.2608 -0.15067,-0.26079 -0.50071,-0.86931 -0.5007,-0.86931 -0.53169,-0.93514 -0.53168,-0.93514 -0.0869,0.11965 -0.0869,0.11964 -2.60734,4.48833 -2.60733,4.48833 -12.971128,0 -12.971068,0 1.290842,-2.23847 1.290843,-2.23848 7.872766,-13.63572 7.872765,-13.63572 -1.0298,-1.79453 -1.0298,-1.79452 -0.17266,-0.30426 -0.17264,-0.30426 -0.50057,-0.86931 -0.50057,-0.86931 -0.29904,-0.52159 -0.29905,-0.52158 -0.0637,-0.0657 -0.0637,-0.0657 -0.51206,0.89151 -0.512068,0.89151 -1.618218,2.78179 -1.618217,2.78179 -1.440246,2.47753 -1.440245,2.47753 -0.498175,0.86931 -0.498174,0.86931 -0.613033,1.04318 -0.613035,1.04317 -0.454106,0.78238 -0.454105,0.78238 -0.629657,1.08663 -0.629657,1.08664 -0.327192,0.56505 -0.327194,0.56505 -0.435681,0.73892 -0.435683,0.73891 -0.652939,1.1301 -0.65294,1.1301 -0.674489,1.17357 -0.674491,1.17357 -0.360603,0.60852 -0.360602,0.60851 -0.480773,0.82585 -0.480773,0.82584 -1.716955,2.95566 -1.716955,2.95565 -0.874302,1.49956 -0.874301,1.49956 -12.992276,0 -12.992225,0 0.127339,-0.1956 0.127339,-0.19559 1.027924,-1.78209 1.027924,-1.78208 0.45061,-0.78238 0.450609,-0.78238 0.651118,-1.1301 0.651119,-1.1301 0.85426,-1.47783 0.854261,-1.47783 0.450305,-0.78238 0.450306,-0.78238 0.952752,-1.65168 0.952753,-1.65169 1.029714,-1.78209 1.029715,-1.78208 0.926123,-1.60823 0.926124,-1.60822 1.204556,-2.08634 1.204557,-2.08635 0.448588,-0.78237 0.448588,-0.78238 0.654897,-1.13011 0.654896,-1.1301 0.850329,-1.47782 0.850328,-1.47783 0.451172,-0.78238 0.451172,-0.78238 1.028312,-1.78208 1.028311,-1.78209 0.450009,-0.78238 0.450009,-0.78238 0.652364,-1.1301 0.652365,-1.1301 0.854475,-1.47783 0.854474,-1.47783 0.448816,-0.78237 0.448815,-0.78238 0.853372,-1.47783 0.853372,-1.47783 0.65246,-1.1301 0.652459,-1.1301 0.626193,-1.08664 0.626192,-1.08664 0.778569,-1.34743 0.778569,-1.34743 1.201052,-2.08634 1.201053,-2.08634 0.118608,-0.17147 0.118609,-0.17148 0,-0.11199 0,-0.112 -0.841048,-1.45515 -0.841049,-1.45515 -0.450751,-0.78238 -0.450753,-0.78238 -0.371947,-0.65198 -0.371949,-0.65198 -0.320219,-0.53396 -0.320221,-0.53396 -0.245183,0.40356 -0.245183,0.40356 -0.628372,1.08664 -0.628373,1.08664 -0.45746,0.78238 -0.45746,0.78238 -0.783932,1.34743 -0.783933,1.34743 -0.452434,0.78237 -0.452434,0.78238 -0.458108,0.78238 -0.458108,0.78238 -0.831286,1.43436 -0.831286,1.43436 -0.432722,0.73892 -0.432721,0.73891 -0.451933,0.78238 -0.451933,0.78238 -0.964001,1.65169 -0.964001,1.65168 -0.249068,0.43466 -0.249067,0.43465 -0.657781,1.13011 -0.657781,1.1301 -0.781693,1.34743 -0.781694,1.34743 -1.241721,2.12981 -1.241722,2.12981 -0.476637,0.82584 -0.476637,0.82585 -0.278424,0.47812 -0.278423,0.47812 -0.937773,1.60822 -0.937774,1.60822 -0.465525,0.80459 -0.465525,0.80458 -0.465157,0.80364 -0.465157,0.80364 -0.913493,1.56476 -0.913494,1.56475 -0.175989,0.30426 -0.175989,0.30426 -1.285012,2.21674 -1.285011,2.21674 -0.715472,1.21703 -0.715473,1.21704 -0.806444,1.39089 -0.806444,1.3909 -0.451841,0.78238 -0.451841,0.78238 -1.242105,2.12981 -1.242106,2.1298 -0.476644,0.82585 -0.476645,0.82584 -0.281252,0.47812 -0.281252,0.47812 -0.477097,0.82585 -0.477097,0.82584 -0.459708,0.78238 -0.459707,0.78238 -0.476804,0.82584 -0.476804,0.82585 -0.453442,0.78238 -0.453442,0.78238 -0.431019,0.73891 -0.431021,0.73891 -13.023469,0.022 -13.023469,0.022 0.12813,-0.19587 0.12813,-0.19588 0.547669,-0.95624 0.54767,-0.95624 0.477893,-0.82585 0.477893,-0.82584 0.450906,-0.78238 0.450906,-0.78238 0.652365,-1.1301 0.652364,-1.1301 0.854475,-1.47783 0.854474,-1.47783 0.476323,-0.82584 0.476322,-0.82585 0.449798,-0.78237 0.449798,-0.78238 0.853319,-1.47783 0.853318,-1.47783 0.827146,-1.43436 0.827145,-1.43436 0.478973,-0.82584 0.478972,-0.82585 0.448247,-0.78238 0.448247,-0.78238 1.030968,-1.78208 1.030969,-1.78209 0.952752,-1.65168 0.952752,-1.65169 0.450306,-0.78238 0.450305,-0.78238 0.854474,-1.47783 0.854475,-1.47782 0.652365,-1.13011 0.652365,-1.1301 0.449149,-0.78238 0.449149,-0.78238 1.030738,-1.78208 1.030737,-1.78209 0.955478,-1.65168 0.95548,-1.65169 0.463013,-0.80411 0.463014,-0.80412 0.463817,-0.80411 0.463818,-0.80411 1.028312,-1.78208 1.028312,-1.78209 0.464648,-0.80364 0.46465,-0.80364 0.464677,-0.80458 0.464678,-0.80459 0.952753,-1.65168 0.952752,-1.65169 1.028545,-1.78209 1.028545,-1.78208 0.652318,-1.13011 0.652317,-1.1301 0.927089,-1.60822 0.927088,-1.60822 1.004267,-1.73862 1.004266,-1.73862 0.504349,-0.86931 0.504349,-0.86931 0.448247,-0.78238 0.448247,-0.78238 1.030968,-1.78209 1.030969,-1.78208 0.926232,-1.60822 0.926232,-1.60823 1.029485,-1.782081 1.029483,-1.782085 0.955479,-1.651689 0.955479,-1.651688 0.463013,-0.804112 0.463014,-0.804111 0.463403,-0.804112 0.463404,-0.804111 0.8143,-1.41281 0.8143,-1.41281 0.06227,0.06538 0.06227,0.06538 0.625918,1.086638 0.625918,1.086637 0.328687,0.565051 0.328686,0.565051 1.627066,2.825257 1.627065,2.825257 0.453891,0.782379 0.453892,0.782378 0.528157,0.912776 0.528158,0.912775 1.625986,2.82526 1.625985,2.82525 0.58927,0.99971 0.58927,0.9997 1.149476,1.99942 1.149475,1.99941 0.479342,0.82584 0.479341,0.82585 0.324639,0.56505 0.324639,0.56505 0.433014,0.73891 0.433014,0.73892 0.324834,0.58601 0.324834,0.58601 0.0607,0.0375 0.0607,0.0375 0.997159,-1.73931 0.997158,-1.73931 0.310617,-0.5359 0.310616,-0.5359 1.202863,-2.08634 1.202864,-2.08635 0.449898,-0.78238 0.449896,-0.78237 1.028312,-1.78209 1.028312,-1.78208 0.463817,-0.80412 0.463818,-0.80411 0.463818,-0.80411 0.463817,-0.80411 1.02831,-1.782084 1.02831,-1.782085 0.45121,-0.782379 0.45121,-0.782379 0.95275,-1.651688 0.95275,-1.651689 1.02991,-1.782085 1.0299,-1.782085 0.13803,-0.238462 0.13803,-0.238463 0.0733,0.02385 0.0733,0.02385 1.55499,2.692149 1.55499,2.69215 0.25362,0.434655 0.25363,0.434655 1.62612,2.825256 1.62613,2.825257 0.33,0.565057 0.33001,0.56505 1.75774,3.04258 1.75774,3.04259 0.82869,1.43436 0.82869,1.43436 1.10233,1.91248 1.10232,1.91248 1.05243,1.82555 1.05245,1.82555 0.0923,0 0.0923,0 8.48048,-14.69133 8.48047,-14.69134 0.0603,-0.05626 0.0603,-0.05626 26.86167,46.50879 26.86167,46.50879 0.24624,0.425 0.24624,0.425 -1.56154,0 -1.56153,0 -19.7609,-34.29626 -19.76089,-34.29626 -0.0844,0.15412 -0.0844,0.15412 -7.73496,13.30044 -7.73496,13.30044 -0.002,0.0976 -0.002,0.0976 0.76855,1.33679 0.76855,1.33678 0.36569,0.61173 0.3657,0.61173 0.99969,1.73541 0.99968,1.7354 1.60316,2.78179 1.60316,2.78179 1.0292,1.78209 1.0292,1.78208 0.45065,0.78238 0.45066,0.78238 0.5036,0.86931 0.50359,0.86931 0.49744,0.86931 0.49745,0.86931 0.49018,0.84758 0.4902,0.84757 0.47728,0.82632 0.4773,0.82631 0.49102,0.84711 0.49102,0.84711 0.49541,0.86931 0.49541,0.86931 0.32845,0.56505 0.32845,0.56505 0.32854,0.56505 0.32854,0.56505 1.62707,2.82526 1.62707,2.82525 0.45514,0.78238 0.45513,0.78238 1.02482,1.78209 1.02482,1.78208 0.0367,0.0652 0.0367,0.0652 -1.5575,0 -1.55749,0 -0.41692,-0.71718 -0.41694,-0.71718 -0.45418,-0.78238 -0.45418,-0.78238 -0.63083,-1.08664 -0.63084,-1.08663 -0.19683,-0.34773 -0.19684,-0.34772 -0.47179,-0.82585 -0.47177,-0.82584 -0.98183,-1.69515 -0.98183,-1.69516 -0.71599,-1.2605 -0.716,-1.2605 -0.48972,-0.84805 -0.48974,-0.84804 -0.49102,-0.84711 -0.49102,-0.8471 -0.49716,-0.86931 -0.49715,-0.86931 -0.95514,-1.65169 -0.95515,-1.65169 -0.50507,-0.86931 -0.50508,-0.86931 -0.18867,-0.34772 -0.18866,-0.34773 -0.85422,-1.47783 -0.85422,-1.47782 -0.65111,-1.1301 -0.65113,-1.13011 -0.45146,-0.78238 -0.45147,-0.78237 -1.02932,-1.78209 -1.02933,-1.78208 -0.49389,-0.86931 -0.49389,-0.86931 -0.69287,-1.20386 -0.69288,-1.20386 -0.0802,-0.005 -0.0802,-0.005 -5.30534,9.11969 -5.30536,9.11969 -2.4849,4.27373 -2.4849,4.27374 0.47783,0.81173 0.47781,0.81172 0.32502,0.56505 0.32502,0.56506 0.47935,0.82584 0.47933,0.82584 1.15007,1.99942 1.15006,1.99941 0.47834,0.82584 0.47835,0.82585 0.28049,0.47812 0.2805,0.47812 0.28073,0.49985 0.28073,0.49986 -1.56413,0 -1.56412,0 -0.99527,-1.71689 z m -8.10304,-46.14799 7.64993,-13.2595 0.11671,-0.23855 0.11672,-0.23854 -0.64661,-1.12467 -0.64661,-1.12466 -0.85386,-1.47783 -0.85386,-1.47783 -0.47959,-0.84757 -0.4796,-0.84758 -0.0585,0 -0.0585,0 -0.3062,0.49985 -0.30618,0.49986 -1.75939,3.04258 -1.75939,3.04258 -0.0676,0.0869 -0.0676,0.0869 -0.56085,0.9997 -0.56084,0.99971 -0.76334,1.30396 -0.76334,1.30397 -0.58742,0.9997 -0.58743,0.99971 -0.80343,1.3909 -0.80344,1.39089 -0.75537,1.30397 -0.75537,1.30396 -1.89847,3.25991 -1.89848,3.25991 -0.29719,0.51984 -0.29719,0.51983 0.14185,0.29747 0.14186,0.29748 1.09429,1.87755 1.09429,1.87755 0.62854,1.08664 0.62854,1.08664 0.16303,0.28198 0.16303,0.28197 0.0435,-0.003 0.0435,-0.003 z"
         id="path47"
         inkscape:connector-curvature="0" />
      <path
         style="fill:#006fbf;stroke-width:0.08693098"
         d="m 122.25726,179.86031 -0.99528,-1.71688 -0.50181,-0.86931 -0.5018,-0.86931 -0.15067,-0.2608 -0.15067,-0.26079 -0.50071,-0.86931 -0.5007,-0.86931 -0.53169,-0.93436 -0.53168,-0.93436 -0.0435,0.004 -0.0435,0.004 -2.63177,4.54551 -2.63177,4.5455 -6.01048,0.0577 -6.01047,0.0577 -6.940135,0 -6.940131,0 0,-0.0445 0,-0.0445 9.13153,-15.81685 9.131526,-15.81676 -1.03721,-1.80743 -1.03721,-1.80742 -0.17266,-0.30426 -0.17264,-0.30426 -0.47581,-0.82584 -0.47581,-0.82585 -0.37219,-0.65198 -0.37219,-0.65198 -0.0229,-0.0269 -0.0229,-0.0269 -0.25698,0.46155 -0.25698,0.46155 -0.477955,0.82584 -0.477959,0.82584 -1.0642,1.82556 -1.064198,1.82555 -0.329151,0.56505 -0.329151,0.56505 -0.738405,1.2605 -0.738406,1.2605 -0.347158,0.60851 -0.347158,0.60852 -0.957147,1.65169 -0.957148,1.65169 -0.460107,0.78238 -0.460108,0.78237 -0.47098,0.82585 -0.470979,0.82584 -0.283754,0.47812 -0.283754,0.47812 -0.937753,1.60823 -0.937753,1.60822 -0.755435,1.30396 -0.755437,1.30397 -0.506901,0.86931 -0.506902,0.86931 -0.464509,0.80411 -0.464511,0.80411 -0.478951,0.82538 -0.478952,0.82537 -0.46604,0.80458 -0.46604,0.80458 -0.782587,1.34743 -0.782588,1.34743 -0.459871,0.78238 -0.459872,0.78238 -0.442211,0.78246 -0.442212,0.78246 -0.599905,1.00718 -0.599903,1.00718 -6.441506,0.0576 -6.441505,0.0576 -6.454625,7e-5 -6.454625,6e-5 0,-0.0779 0,-0.0779 1.013708,-1.7694 1.013708,-1.7694 0.46495,-0.80364 0.46495,-0.80364 0.462372,-0.80458 0.462373,-0.80458 0.829187,-1.43437 0.829188,-1.43436 0.850063,-1.47782 0.850064,-1.47783 0.477547,-0.82584 0.477545,-0.82585 0.497443,-0.86931 0.497442,-0.86931 0.478982,-0.82584 0.478983,-0.82585 0.48933,-0.84757 0.48933,-0.84758 0.490193,-0.84758 0.490191,-0.84757 0.497443,-0.86931 0.497443,-0.86931 0.491023,-0.84711 0.491024,-0.84711 0.477288,-0.82631 0.477289,-0.82632 0.490193,-0.84757 0.490192,-0.84758 0.497442,-0.86931 0.497443,-0.86931 0.491023,-0.84711 0.491024,-0.8471 0.47812,-0.82585 0.47812,-0.82584 0.490456,-0.84805 0.490455,-0.84805 0.496348,-0.86931 0.496348,-0.86931 0.491023,-0.8471 0.491024,-0.84711 0.46494,-0.80458 0.46494,-0.80458 0.651119,-1.13011 0.651118,-1.1301 0.85426,-1.47783 0.854261,-1.47782 0.449351,-0.78238 0.449351,-0.78238 1.202256,-2.08634 1.202256,-2.08635 0.462998,-0.80411 0.462999,-0.80411 0.477289,-0.82632 0.477289,-0.82631 0.491023,-0.84711 0.491024,-0.8471 0.497442,-0.86931 0.497443,-0.86931 0.490191,-0.84758 0.490193,-0.84758 0.490272,-0.84757 0.49027,-0.84758 0.201336,-0.34929 0.201336,-0.34928 -0.70181,-1.21547 -0.701809,-1.21547 -0.479117,-0.82585 -0.479117,-0.82584 -0.326004,-0.56505 -0.326004,-0.56506 -0.515685,-0.88329 -0.515685,-0.8833 -0.24616,0.40518 -0.246161,0.40517 -0.628372,1.08664 -0.628373,1.08664 -0.45746,0.78238 -0.45746,0.78238 -0.783932,1.34743 -0.783933,1.34743 -0.452434,0.78237 -0.452434,0.78238 -0.458108,0.78238 -0.458108,0.78238 -0.831286,1.43436 -0.831286,1.43436 -0.432722,0.73892 -0.432721,0.73891 -0.451933,0.78238 -0.451933,0.78238 -0.964001,1.65169 -0.964001,1.65168 -0.249068,0.43466 -0.249067,0.43465 -0.657781,1.13011 -0.657781,1.1301 -0.781693,1.34743 -0.781694,1.34743 -1.241721,2.12981 -1.241722,2.12981 -0.476637,0.82584 -0.476637,0.82585 -0.278424,0.47812 -0.278423,0.47812 -0.937773,1.60822 -0.937774,1.60822 -0.465525,0.80459 -0.465525,0.80458 -0.465157,0.80364 -0.465157,0.80364 -0.913493,1.56476 -0.913494,1.56475 -0.175989,0.30426 -0.175989,0.30426 -1.285012,2.21674 -1.285011,2.21674 -0.715472,1.21703 -0.715473,1.21704 -0.806444,1.39089 -0.806444,1.3909 -0.451841,0.78238 -0.451841,0.78238 -1.242105,2.12981 -1.242106,2.1298 -0.476644,0.82585 -0.476645,0.82584 -0.281252,0.47812 -0.281252,0.47812 -0.477097,0.82585 -0.477097,0.82584 -0.459708,0.78238 -0.459707,0.78238 -0.476804,0.82584 -0.476804,0.82585 -0.453442,0.78238 -0.453442,0.78238 -0.431019,0.73891 -0.431021,0.73891 -13.023469,0.022 -13.023469,0.022 0.12813,-0.19587 0.12813,-0.19588 0.547669,-0.95624 0.54767,-0.95624 0.477893,-0.82585 0.477893,-0.82584 0.450906,-0.78238 0.450906,-0.78238 0.652365,-1.1301 0.652364,-1.1301 0.854475,-1.47783 0.854474,-1.47783 0.476323,-0.82584 0.476322,-0.82585 0.449798,-0.78237 0.449798,-0.78238 0.853319,-1.47783 0.853318,-1.47783 0.827146,-1.43436 0.827145,-1.43436 0.478973,-0.82584 0.478972,-0.82585 0.448247,-0.78238 0.448247,-0.78238 1.030968,-1.78208 1.030969,-1.78209 0.952752,-1.65168 0.952752,-1.65169 0.450306,-0.78238 0.450305,-0.78238 0.854474,-1.47783 0.854475,-1.47782 0.652365,-1.13011 0.652365,-1.1301 0.449149,-0.78238 0.449149,-0.78238 1.030738,-1.78208 1.030737,-1.78209 0.955478,-1.65168 0.95548,-1.65169 0.463013,-0.80411 0.463014,-0.80412 0.463817,-0.80411 0.463818,-0.80411 1.028312,-1.78208 1.028312,-1.78209 0.464648,-0.80364 0.46465,-0.80364 0.464677,-0.80458 0.464678,-0.80459 0.952753,-1.65168 0.952752,-1.65169 1.028545,-1.78209 1.028545,-1.78208 0.652318,-1.13011 0.652317,-1.1301 0.927089,-1.60822 0.927088,-1.60822 1.004267,-1.73862 1.004266,-1.73862 0.504349,-0.86931 0.504349,-0.86931 0.448247,-0.78238 0.448247,-0.78238 1.030968,-1.78209 1.030969,-1.78208 0.926232,-1.60822 0.926232,-1.60823 1.029485,-1.782081 1.029483,-1.782085 0.955479,-1.651689 0.955479,-1.651688 0.463013,-0.804112 0.463014,-0.804111 0.463403,-0.804112 0.463404,-0.804111 0.8143,-1.41281 0.8143,-1.41281 0.06227,0.06538 0.06227,0.06538 0.625918,1.086638 0.625918,1.086637 0.328687,0.565051 0.328686,0.565051 1.627066,2.825257 1.627065,2.825257 0.453891,0.782379 0.453892,0.782378 0.528157,0.912776 0.528158,0.912775 1.625986,2.82526 1.625985,2.82525 0.58927,0.99971 0.58927,0.9997 1.149476,1.99942 1.149475,1.99941 0.479342,0.82584 0.479341,0.82585 0.324639,0.56505 0.324639,0.56505 0.432069,0.73891 0.432069,0.73892 0.378474,0.67192 0.378473,0.67193 0.02282,-0.0228 0.02282,-0.0228 0.483319,-0.84423 0.483319,-0.84423 0.490624,-0.84805 0.490623,-0.84805 0.500519,-0.86931 0.500519,-0.86931 0.472729,-0.82584 0.47273,-0.82584 0.492075,-0.84711 0.492075,-0.84711 0.464087,-0.80458 0.464087,-0.80458 1.027211,-1.78209 1.027211,-1.78208 0.464649,-0.80364 0.464649,-0.80364 0.462372,-0.80458 0.462373,-0.80459 0.853319,-1.477823 0.853316,-1.477826 0.8282,-1.434361 0.82821,-1.434362 0.4489,-0.782378 0.44889,-0.782379 1.02771,-1.782085 1.0277,-1.782085 0.48139,-0.849169 0.48139,-0.849168 0.0762,0.02541 0.0762,0.02541 1.17575,2.040794 1.17575,2.040794 0.32517,0.565052 0.32517,0.565051 0.67768,1.173568 0.67768,1.173568 1.00134,1.73862 1.00132,1.738619 0.46409,0.804583 0.46409,0.804577 0.46465,0.80364 0.46464,0.80364 1.00092,1.73862 1.00091,1.73862 0.43552,0.73891 0.43554,0.73892 1.02581,1.78208 1.02582,1.78209 0.95349,1.65169 0.9535,1.65168 1.0103,1.76102 1.01029,1.76103 0.0869,-0.11959 0.0869,-0.11959 8.47577,-14.69913 8.47577,-14.699122 0.0435,-0.0037 0.0435,-0.0037 10.08089,17.451382 10.08089,17.45137 17.01095,29.44787 17.01096,29.44787 -1.53414,-10e-4 -1.53414,-0.001 -19.6857,-34.17006 -19.68569,-34.17007 -0.0928,-0.12695 -0.0928,-0.12695 -7.82205,13.44722 -7.82206,13.44721 -0.0249,0.10126 -0.0249,0.10126 0.77449,1.34242 0.77449,1.34242 0.45823,0.78238 0.45822,0.78238 0.45129,0.78237 0.45129,0.78238 1.02831,1.78209 1.02832,1.78208 0.44971,0.78238 0.44972,0.78238 0.85336,1.47783 0.85338,1.47782 0.65347,1.13011 0.65347,1.1301 0.4494,0.78238 0.44939,0.78238 0.65237,1.1301 0.65236,1.1301 0.85322,1.47783 0.85322,1.47783 0.9262,1.60822 0.92619,1.60822 1.00265,1.73862 1.00265,1.73862 0.47742,0.82585 0.47741,0.82584 0.83971,1.45609 0.8397,1.4561 0.84076,1.45609 0.84076,1.45609 0.44812,0.78238 0.44813,0.78238 0.79746,1.38041 0.79746,1.38039 0,0.0322 0,0.0322 -1.47154,0 -1.47153,0 -0.30118,-0.49985 -0.30119,-0.49986 -0.84864,-1.47782 -0.84864,-1.47783 -0.65236,-1.1301 -0.65237,-1.13011 -0.45,-0.78237 -0.45001,-0.78238 -1.02824,-1.78209 -1.02823,-1.78208 -0.49963,-0.86931 -0.49963,-0.86931 -0.47163,-0.82585 -0.47165,-0.82584 -0.4915,-0.84805 -0.4915,-0.84805 -0.49102,-0.8471 -0.49103,-0.84711 -0.4963,-0.86931 -0.49631,-0.86931 -0.65195,-1.1301 -0.65197,-1.1301 -1.54933,-2.69486 -1.54933,-2.69486 -0.46414,-0.80365 -0.46415,-0.80364 -0.46409,-0.80458 -0.46409,-0.80458 -1.028,-1.78209 -1.028,-1.78208 -0.66673,-1.17357 -0.66673,-1.17357 -0.32797,-0.56505 -0.32796,-0.56505 -0.3504,-0.5914 -0.35041,-0.59141 -0.0663,0.0698 -0.0663,0.0698 -7.75865,13.3439 -7.75863,13.34391 -8.7e-4,0.0888 -8.7e-4,0.0888 0.46103,0.78049 0.46103,0.7805 0.32464,0.56505 0.32463,0.56505 0.47935,0.82584 0.47934,0.82585 1.15006,1.99941 1.15006,1.99941 0.47835,0.82585 0.47834,0.82584 0.28049,0.47812 0.2805,0.47812 0.28073,0.49986 0.28074,0.49985 -1.56414,0 -1.56412,0 -0.99527,-1.71689 z m -7.94258,-46.3953 7.80163,-13.51366 -0.209,-0.3301 -0.20899,-0.3301 -1.06781,-1.86901 -1.06781,-1.86902 -0.40878,-0.69545 -0.40877,-0.69544 -0.32484,-0.58601 -0.32483,-0.58601 -0.0595,-0.0368 -0.0595,-0.0368 -0.46657,0.79666 -0.46656,0.79666 -0.45245,0.78238 -0.45245,0.78238 -0.7375,1.2605 -0.73749,1.2605 -0.5516,0.95624 -0.55161,0.95624 -0.47913,0.82584 -0.47913,0.82585 -0.36338,0.60851 -0.3634,0.60852 -0.69474,1.21703 -0.69472,1.21704 -0.28582,0.47812 -0.28582,0.47812 -0.92989,1.60822 -0.92989,1.60822 -0.50747,0.86931 -0.50747,0.86931 -0.27776,0.47812 -0.27775,0.47812 -0.4771,0.82585 -0.47709,0.82584 -0.45811,0.78238 -0.45811,0.78238 -0.80539,1.3909 -0.80539,1.39089 -0.34951,0.5939 -0.34952,0.5939 0.50298,0.88393 0.50298,0.88393 0.76223,1.30396 0.76224,1.30396 0.62863,1.08664 0.62863,1.08664 0.16303,0.28198 0.16303,0.28197 0.0478,5.2e-4 0.0478,5.2e-4 7.80162,-13.51366 z"
         id="path45"
         inkscape:connector-curvature="0" />
      <path
         style="fill:#f80707;stroke-width:0.08693098"
         d="m 122.25726,179.86031 -0.99528,-1.71688 -0.50181,-0.86931 -0.5018,-0.86931 -0.15067,-0.2608 -0.15067,-0.26079 -0.47397,-0.82584 -0.47395,-0.82585 -0.98399,-1.69515 -0.98398,-1.69516 -0.49297,-0.86931 -0.49298,-0.86931 -1.00253,-1.73862 -1.00253,-1.73862 -0.50498,-0.8693 -0.50498,-0.86931 -0.64883,-1.13011 -0.64883,-1.1301 -1.00599,-1.73862 -1.00599,-1.73862 -0.49268,-0.86931 -0.49268,-0.86931 -0.49102,-0.8471 -0.49102,-0.84711 -0.47729,-0.82632 -0.47729,-0.82631 -0.46296,-0.80411 -0.46296,-0.80411 -1.02783,-1.78209 -1.02783,-1.78208 -0.45053,-0.78238 -0.45053,-0.78238 -0.22092,-0.39119 -0.22092,-0.39119 -0.47589,-0.82584 -0.4759,-0.82585 -0.37219,-0.65198 -0.37219,-0.65198 -0.0229,-0.0269 -0.0229,-0.0269 -0.25698,0.46155 -0.25698,0.46155 -0.477955,0.82584 -0.477959,0.82584 -1.0642,1.82556 -1.064198,1.82555 -0.329151,0.56505 -0.329151,0.56505 -0.738405,1.2605 -0.738406,1.2605 -0.347158,0.60851 -0.347158,0.60852 -0.957147,1.65169 -0.957148,1.65169 -0.460107,0.78238 -0.460108,0.78237 -0.47098,0.82585 -0.470979,0.82584 -0.283754,0.47812 -0.283754,0.47812 -0.937753,1.60823 -0.937753,1.60822 -0.755435,1.30396 -0.755437,1.30397 -0.506901,0.86931 -0.506902,0.86931 -0.464509,0.80411 -0.464511,0.80411 -0.478951,0.82538 -0.478952,0.82537 -0.46604,0.80458 -0.46604,0.80458 -0.782587,1.34743 -0.782588,1.34743 -0.459871,0.78238 -0.459872,0.78238 -0.442211,0.78246 -0.442212,0.78246 -0.599905,1.00718 -0.599903,1.00718 -6.441506,0.0576 -6.441505,0.0576 -6.454625,7e-5 -6.454625,6e-5 0,-0.0779 0,-0.0779 1.013708,-1.7694 1.013708,-1.7694 0.46495,-0.80364 0.46495,-0.80364 0.462372,-0.80458 0.462373,-0.80458 0.829187,-1.43437 0.829188,-1.43436 0.850063,-1.47782 0.850064,-1.47783 0.477547,-0.82584 0.477545,-0.82585 0.497443,-0.86931 0.497442,-0.86931 0.478982,-0.82584 0.478983,-0.82585 0.48933,-0.84757 0.48933,-0.84758 0.490193,-0.84758 0.490191,-0.84757 0.497443,-0.86931 0.497443,-0.86931 0.491023,-0.84711 0.491024,-0.84711 0.477288,-0.82631 0.477289,-0.82632 0.490193,-0.84757 0.490192,-0.84758 0.497442,-0.86931 0.497443,-0.86931 0.491023,-0.84711 0.491024,-0.8471 0.47812,-0.82585 0.47812,-0.82584 0.490456,-0.84805 0.490455,-0.84805 0.496348,-0.86931 0.496348,-0.86931 0.491023,-0.8471 0.491024,-0.84711 0.46494,-0.80458 0.46494,-0.80458 0.651119,-1.13011 0.651118,-1.1301 0.85426,-1.47783 0.854261,-1.47782 0.449351,-0.78238 0.449351,-0.78238 1.202256,-2.08634 1.202256,-2.08635 0.462998,-0.80411 0.462999,-0.80411 0.477289,-0.82632 0.477289,-0.82631 0.491023,-0.84711 0.491024,-0.8471 0.497442,-0.86931 0.497443,-0.86931 0.490191,-0.84758 0.490193,-0.84758 0.490272,-0.84757 0.49027,-0.84758 0.201336,-0.34929 0.201336,-0.34928 -0.70181,-1.21547 -0.701809,-1.21547 -0.479117,-0.82585 -0.479117,-0.82584 -0.326004,-0.56505 -0.326004,-0.56506 -0.515685,-0.88329 -0.515685,-0.8833 -0.24616,0.40518 -0.246161,0.40517 -0.628372,1.08664 -0.628373,1.08664 -0.45746,0.78238 -0.45746,0.78238 -0.783932,1.34743 -0.783933,1.34743 -0.452434,0.78237 -0.452434,0.78238 -0.458108,0.78238 -0.458108,0.78238 -0.831286,1.43436 -0.831286,1.43436 -0.432722,0.73892 -0.432721,0.73891 -0.451933,0.78238 -0.451933,0.78238 -0.964001,1.65169 -0.964001,1.65168 -0.249068,0.43466 -0.249067,0.43465 -0.657781,1.13011 -0.657781,1.1301 -0.781693,1.34743 -0.781694,1.34743 -1.241721,2.12981 -1.241722,2.12981 -0.476637,0.82584 -0.476637,0.82585 -0.278424,0.47812 -0.278423,0.47812 -0.937773,1.60822 -0.937774,1.60822 -0.465525,0.80459 -0.465525,0.80458 -0.465157,0.80364 -0.465157,0.80364 -0.913493,1.56476 -0.913494,1.56475 -0.175989,0.30426 -0.175989,0.30426 -1.285012,2.21674 -1.285011,2.21674 -0.715472,1.21703 -0.715473,1.21704 -0.806444,1.39089 -0.806444,1.3909 -0.451841,0.78238 -0.451841,0.78238 -1.242105,2.12981 -1.242106,2.1298 -0.476644,0.82585 -0.476645,0.82584 -0.281252,0.47812 -0.281252,0.47812 -0.477097,0.82585 -0.477097,0.82584 -0.459708,0.78238 -0.459707,0.78238 -0.476804,0.82584 -0.476804,0.82585 -0.453442,0.78238 -0.453442,0.78238 -0.431019,0.73891 -0.431021,0.73891 -13.023469,0.022 -13.023469,0.022 0.12813,-0.19587 0.12813,-0.19588 0.547669,-0.95624 0.54767,-0.95624 0.477893,-0.82585 0.477893,-0.82584 0.450906,-0.78238 0.450906,-0.78238 0.652365,-1.1301 0.652364,-1.1301 0.854475,-1.47783 0.854474,-1.47783 0.476323,-0.82584 0.476322,-0.82585 0.449798,-0.78237 0.449798,-0.78238 0.853319,-1.47783 0.853318,-1.47783 0.827146,-1.43436 0.827145,-1.43436 0.478973,-0.82584 0.478972,-0.82585 0.448247,-0.78238 0.448247,-0.78238 1.030968,-1.78208 1.030969,-1.78209 0.952752,-1.65168 0.952752,-1.65169 0.450306,-0.78238 0.450305,-0.78238 0.854474,-1.47783 0.854475,-1.47782 0.652365,-1.13011 0.652365,-1.1301 0.449149,-0.78238 0.449149,-0.78238 1.030738,-1.78208 1.030737,-1.78209 0.955478,-1.65168 0.95548,-1.65169 0.463013,-0.80411 0.463014,-0.80412 0.463817,-0.80411 0.463818,-0.80411 1.028312,-1.78208 1.028312,-1.78209 0.464648,-0.80364 0.46465,-0.80364 0.464677,-0.80458 0.464678,-0.80459 0.952753,-1.65168 0.952752,-1.65169 1.028545,-1.78209 1.028545,-1.78208 0.652318,-1.13011 0.652317,-1.1301 0.927089,-1.60822 0.927088,-1.60822 1.004267,-1.73862 1.004266,-1.73862 0.504349,-0.86931 0.504349,-0.86931 0.448247,-0.78238 0.448247,-0.78238 1.030968,-1.78209 1.030969,-1.78208 0.926232,-1.60822 0.926232,-1.60823 1.029485,-1.782081 1.029483,-1.782085 0.955479,-1.651689 0.955479,-1.651688 0.463013,-0.804112 0.463014,-0.804111 0.463403,-0.804112 0.463404,-0.804111 0.8143,-1.41281 0.8143,-1.41281 0.06227,0.06538 0.06227,0.06538 0.625918,1.086638 0.625918,1.086637 0.328687,0.565051 0.328686,0.565051 1.627066,2.825257 1.627065,2.825257 0.453891,0.782379 0.453892,0.782378 0.528157,0.912776 0.528158,0.912775 1.625986,2.82526 1.625985,2.82525 0.58927,0.99971 0.58927,0.9997 1.149476,1.99942 1.149475,1.99941 0.479342,0.82584 0.479341,0.82585 0.324639,0.56505 0.324639,0.56505 0.432069,0.73891 0.432069,0.73892 0.378474,0.67192 0.378473,0.67193 0.02282,-0.0228 0.02282,-0.0228 0.483319,-0.84423 0.483319,-0.84423 0.490624,-0.84805 0.490623,-0.84805 0.500519,-0.86931 0.500519,-0.86931 0.472729,-0.82584 0.47273,-0.82584 0.492075,-0.84711 0.492075,-0.84711 0.464087,-0.80458 0.464087,-0.80458 1.027211,-1.78209 1.027211,-1.78208 0.464649,-0.80364 0.464649,-0.80364 0.462372,-0.80458 0.462373,-0.80459 0.853319,-1.477823 0.853316,-1.477826 0.8282,-1.434361 0.82821,-1.434362 0.4489,-0.782378 0.44889,-0.782379 1.02771,-1.782085 1.0277,-1.782085 0.48139,-0.849169 0.48139,-0.849168 0.0762,0.02541 0.0762,0.02541 1.17575,2.040794 1.17575,2.040794 0.32517,0.565052 0.32517,0.565051 0.67768,1.173568 0.67768,1.173568 1.00134,1.73862 1.00132,1.738619 0.46409,0.804583 0.46409,0.804577 0.46465,0.80364 0.46464,0.80364 1.00092,1.73862 1.00091,1.73862 0.43552,0.73891 0.43554,0.73892 1.02581,1.78208 1.02582,1.78209 0.95315,1.65169 0.95317,1.65168 0.99791,1.73862 0.99792,1.73862 0.1066,0.1304 0.1066,0.1304 0.76899,1.34743 0.769,1.34743 1.88141,3.25991 1.88141,3.25991 2.00545,3.47724 2.00544,3.47724 1.79183,3.10279 1.79182,3.10279 0,0.0372 0,0.0372 0.77134,1.33693 0.77133,1.33694 0.45823,0.78238 0.45822,0.78238 0.45129,0.78237 0.45129,0.78238 1.02831,1.78209 1.02832,1.78208 0.44971,0.78238 0.44972,0.78238 0.85336,1.47783 0.85338,1.47782 0.65347,1.13011 0.65347,1.1301 0.4494,0.78238 0.44939,0.78238 0.65237,1.1301 0.65236,1.1301 0.85322,1.47783 0.85322,1.47783 0.9262,1.60822 0.92619,1.60822 1.00265,1.73862 1.00265,1.73862 0.47742,0.82585 0.47741,0.82584 0.83971,1.45609 0.8397,1.4561 0.84076,1.45609 0.84076,1.45609 0.44812,0.78238 0.44813,0.78238 0.79746,1.38041 0.79746,1.38039 0,0.0322 0,0.0322 -1.47154,0 -1.47153,0 -0.30118,-0.49985 -0.30119,-0.49986 -0.84864,-1.47782 -0.84864,-1.47783 -0.65236,-1.1301 -0.65237,-1.13011 -0.45,-0.78237 -0.45001,-0.78238 -1.02824,-1.78209 -1.02823,-1.78208 -0.49963,-0.86931 -0.49963,-0.86931 -0.47163,-0.82585 -0.47165,-0.82584 -0.4915,-0.84805 -0.4915,-0.84805 -0.49102,-0.8471 -0.49103,-0.84711 -0.4963,-0.86931 -0.49631,-0.86931 -0.65195,-1.1301 -0.65197,-1.1301 -1.54933,-2.69486 -1.54933,-2.69486 -0.46414,-0.80365 -0.46415,-0.80364 -0.46409,-0.80458 -0.46409,-0.80458 -1.028,-1.78209 -1.028,-1.78208 -0.66876,-1.17357 -0.66876,-1.17357 -0.47395,-0.82584 -0.47395,-0.82585 -0.35307,-0.56505 -0.35309,-0.56505 -1.15008,-1.99941 -1.15009,-1.99941 -1.15406,-1.99942 -1.15407,-1.99941 -0.19421,-0.34772 -0.19422,-0.34773 -1.00137,-1.73862 -1.00137,-1.73862 -0.62712,-1.08663 -0.62712,-1.08664 -1.60325,-2.78179 -1.60324,-2.78179 -0.63275,-1.1301 -0.63275,-1.13011 -0.0813,-0.15237 -0.0813,-0.15238 -0.83816,-1.45585 -0.83817,-1.45584 -0.6523,-1.13011 -0.65229,-1.1301 -0.428,-0.75976 -0.42799,-0.75976 -0.0597,-0.0369 -0.0597,-0.0369 -0.46657,0.79666 -0.46656,0.79666 -0.45245,0.78238 -0.45245,0.78238 -0.7375,1.2605 -0.73749,1.2605 -0.5516,0.95624 -0.55161,0.95624 -0.47913,0.82584 -0.47913,0.82585 -0.36338,0.60851 -0.3634,0.60852 -0.69474,1.21703 -0.69472,1.21704 -0.28582,0.47812 -0.28582,0.47812 -0.9563,1.65169 -0.9563,1.65169 -0.2772,0.47812 -0.27718,0.47812 -0.50785,0.86931 -0.50783,0.86931 -0.45088,0.78237 -0.45088,0.78238 -0.45811,0.78238 -0.45811,0.78238 -0.80539,1.3909 -0.80539,1.39089 -0.34951,0.5939 -0.34952,0.5939 0.50298,0.88393 0.50298,0.88393 0.76325,1.30396 0.76324,1.30396 0.44995,0.78238 0.44995,0.78238 0.50644,0.86931 0.50644,0.86931 0.44931,0.78238 0.4493,0.78238 0.85448,1.47783 0.85447,1.47782 0.65347,1.13011 0.65347,1.1301 0.44829,0.78238 0.44829,0.78238 0.85305,1.47782 0.85303,1.47783 1.10753,1.91248 1.10753,1.91248 0.17321,0.30426 0.17321,0.30426 0.47566,0.82584 0.47566,0.82585 0.47812,0.82584 0.47812,0.82585 0.5036,0.86931 0.5036,0.86931 0.49744,0.8693 0.49745,0.86931 0.47788,0.82585 0.47788,0.82584 0.47522,0.82585 0.47523,0.82584 0.85448,1.47783 0.85447,1.47782 0.65347,1.13011 0.65347,1.1301 0.47104,0.82584 0.47105,0.82585 0.0648,0.0869 0.0648,0.0869 0.3228,0.58678 0.32279,0.58679 -1.562,0 -1.562,0 z"
         id="path43"
         inkscape:connector-curvature="0" />
      <path
         style="fill:#06ae52;stroke-width:0.08693098"
         d="m 157.28765,181.07735 -0.30119,-0.49986 -0.84864,-1.47782 -0.84864,-1.47783 -0.65236,-1.1301 -0.65237,-1.13011 -0.45,-0.78237 -0.45001,-0.78238 -1.02824,-1.78209 -1.02823,-1.78208 -0.49963,-0.86931 -0.49963,-0.86931 -0.47163,-0.82585 -0.47165,-0.82584 -0.47893,-0.82585 -0.47892,-0.82584 -0.5036,-0.86931 -0.5036,-0.86931 -0.4963,-0.86931 -0.49631,-0.86931 -0.65195,-1.1301 -0.65197,-1.1301 -1.54933,-2.69486 -1.54933,-2.69486 -0.47672,-0.82585 -0.47672,-0.82584 -0.45151,-0.78238 -0.45152,-0.78238 -1.028,-1.78209 -1.028,-1.78208 -0.66876,-1.17357 -0.66876,-1.17357 -0.47395,-0.82584 -0.47395,-0.82585 -0.35307,-0.56505 -0.35309,-0.56505 -1.15008,-1.99941 -1.15009,-1.99941 -1.15406,-1.99942 -1.15407,-1.99941 -0.19421,-0.34772 -0.19422,-0.34773 -1.00137,-1.73862 -1.00137,-1.73862 -0.62712,-1.08663 -0.62712,-1.08664 -1.60325,-2.78179 -1.60324,-2.78179 -0.63275,-1.1301 -0.63275,-1.13011 -0.0813,-0.15237 -0.0813,-0.15238 -0.83816,-1.45585 -0.83817,-1.45584 -0.6523,-1.13011 -0.65229,-1.1301 -0.428,-0.75976 -0.42799,-0.75976 -0.0597,-0.0369 -0.0597,-0.0369 -0.46657,0.79666 -0.46656,0.79666 -0.45245,0.78238 -0.45245,0.78238 -0.7375,1.2605 -0.73749,1.2605 -0.5516,0.95624 -0.55161,0.95624 -0.47913,0.82584 -0.47913,0.82585 -0.36338,0.60851 -0.3634,0.60852 -0.69474,1.21703 -0.69472,1.21704 -0.28582,0.47812 -0.28582,0.47812 -0.92989,1.60822 -0.92989,1.60822 -0.50747,0.86931 -0.50747,0.86931 -0.27776,0.47812 -0.27775,0.47812 -0.4771,0.82585 -0.47709,0.82584 -0.45811,0.78238 -0.45811,0.78238 -0.80539,1.3909 -0.80539,1.39089 -0.34784,0.59104 -0.34784,0.59103 -0.89114,-1.54727 -0.89114,-1.54728 -0.2392,-0.39119 -0.23919,-0.39119 -0.995012,-1.73862 -0.995009,-1.73862 -0.853144,-1.47782 -0.853144,-1.47783 -0.652365,-1.1301 -0.652365,-1.13011 -0.464312,-0.80411 -0.464311,-0.80411 -0.47812,-0.82584 -0.478121,-0.82585 -0.490192,-0.84757 -0.490192,-0.84758 -0.497442,-0.86931 -0.497443,-0.86931 -0.504293,-0.86931 -0.504292,-0.86931 -0.420356,-0.73891 -0.420355,-0.73892 -1.74e-4,-0.0541 -1.74e-4,-0.0541 0.478951,-0.83651 0.478953,-0.83652 0.490623,-0.84805 0.490624,-0.84805 0.500519,-0.86931 0.500519,-0.86931 0.472729,-0.82584 0.47273,-0.82584 0.492074,-0.84711 0.492076,-0.84711 0.464087,-0.80458 0.464087,-0.80458 1.02721,-1.78209 1.027211,-1.78208 0.464649,-0.80364 0.46465,-0.80364 0.462372,-0.80458 0.462372,-0.80459 0.853319,-1.477824 0.853321,-1.477826 0.8282,-1.434361 0.82821,-1.434362 0.4489,-0.782378 0.44889,-0.782379 1.02771,-1.782085 1.0277,-1.782085 0.48139,-0.849169 0.48139,-0.849168 0.0762,0.02541 0.0762,0.02541 1.17575,2.040794 1.17575,2.040794 0.32517,0.565052 0.32517,0.565051 0.67768,1.173568 0.67768,1.173568 1.00134,1.73862 1.00132,1.738619 0.46409,0.804583 0.46409,0.804578 0.46464,0.80364 0.46465,0.80364 1.00092,1.73862 1.00091,1.73862 0.43552,0.73891 0.43554,0.73892 1.02581,1.78208 1.02582,1.78209 0.95315,1.65169 0.95317,1.65168 0.99791,1.73862 0.99792,1.73862 0.1066,0.1304 0.1066,0.1304 0.76899,1.34743 0.769,1.34743 1.88141,3.25991 1.88141,3.25991 2.00545,3.47724 2.00544,3.47724 1.79183,3.10279 1.79182,3.10279 0,0.0372 0,0.0372 0.77134,1.33693 0.77133,1.33694 0.45823,0.78238 0.45822,0.78238 0.45129,0.78237 0.45129,0.78238 1.02831,1.78209 1.02832,1.78208 0.44971,0.78238 0.44972,0.78238 0.85336,1.47783 0.85338,1.47782 0.65347,1.13011 0.65347,1.1301 0.4494,0.78238 0.44939,0.78238 0.65237,1.1301 0.65236,1.1301 0.85322,1.47783 0.85322,1.47783 0.9262,1.60822 0.92619,1.60822 1.00265,1.73862 1.00265,1.73862 0.47742,0.82585 0.47741,0.82584 0.82715,1.43436 0.82714,1.43436 0.85332,1.47783 0.85332,1.47782 0.44812,0.78238 0.44813,0.78238 0.79745,1.38041 0.79747,1.38039 0,0.0322 0,0.0322 -1.47154,0 -1.47153,0 -0.30118,-0.49985 z m -104.897892,0.33504 0,-0.0779 1.013708,-1.7694 1.013708,-1.7694 0.477525,-0.82584 0.477524,-0.82585 0.449798,-0.78238 0.449798,-0.78237 0.829187,-1.43437 0.829188,-1.43436 0.850063,-1.47782 0.850064,-1.47783 0.477547,-0.82584 0.477545,-0.82585 0.497443,-0.86931 0.497442,-0.86931 0.478982,-0.82584 0.478983,-0.82585 0.477023,-0.82584 0.477022,-0.82585 0.5025,-0.8693 0.502499,-0.86931 0.497443,-0.86931 0.497443,-0.86931 0.491023,-0.84711 0.491024,-0.84711 0.477288,-0.82631 0.477289,-0.82632 0.490193,-0.84757 0.490192,-0.84758 0.497442,-0.86931 0.497443,-0.86931 0.491023,-0.84711 0.491024,-0.8471 0.47812,-0.82585 0.47812,-0.82584 0.490456,-0.84805 0.490455,-0.84805 0.496348,-0.86931 0.496348,-0.86931 0.491023,-0.8471 0.491024,-0.84711 0.46494,-0.80458 0.46494,-0.80458 0.651119,-1.13011 0.651118,-1.1301 0.85426,-1.47783 0.854261,-1.47782 0.449351,-0.78238 0.449351,-0.78238 1.202256,-2.08634 1.202256,-2.08635 0.462998,-0.80411 0.462999,-0.80411 0.477289,-0.82632 0.477289,-0.82631 0.491023,-0.84711 0.491024,-0.8471 0.497442,-0.86931 0.497443,-0.86931 0.478027,-0.82585 0.478028,-0.82584 0.371948,-0.65198 0.371948,-0.65198 0.327847,-0.54661 0.327846,-0.5466 0.430036,0.72047 0.430038,0.72046 0.39187,0.69545 0.391871,0.69544 0.50304,0.86931 0.503042,0.86931 0.496348,0.86931 0.496348,0.86931 0.491024,0.84711 0.491023,0.84711 0.478121,0.82584 0.47812,0.82584 0.488237,0.84805 0.488236,0.84805 0.152184,0.26079 0.152185,0.2608 1.022528,1.78208 1.022528,1.78209 0.4781,0.82584 0.478101,0.82584 0.497442,0.86931 0.497443,0.86931 0.490191,0.84758 0.490193,0.84758 0.4616,0.80411 0.4616,0.80411 0.11666,0.18326 0.11666,0.18326 -0.26086,0.46873 -0.26087,0.46872 -0.477955,0.82584 -0.477959,0.82584 -1.0642,1.82556 -1.064198,1.82555 -0.329151,0.56505 -0.329151,0.56505 -0.738405,1.2605 -0.738406,1.2605 -0.347158,0.60851 -0.347158,0.60852 -0.957147,1.65169 -0.957148,1.65169 -0.460107,0.78238 -0.460108,0.78237 -0.47098,0.82585 -0.470979,0.82584 -0.283754,0.47812 -0.283754,0.47812 -0.937753,1.60823 -0.937753,1.60822 -0.755435,1.30396 -0.755437,1.30397 -0.506901,0.86931 -0.506902,0.86931 -0.464509,0.80411 -0.464511,0.80411 -0.478951,0.82538 -0.478952,0.82537 -0.46604,0.80458 -0.46604,0.80458 -0.782587,1.34743 -0.782588,1.34743 -0.459871,0.78238 -0.459872,0.78238 -0.442211,0.78246 -0.442212,0.78246 -0.599905,1.00718 -0.599903,1.00718 -6.441506,0.0576 -6.441505,0.0576 -6.454625,7e-5 -6.454625,6e-5 z"
         id="path41"
         inkscape:connector-curvature="0" />
    </g>
    <g
       transform="matrix(0.29494423,0,0,0.29494423,-12.787377,-13.500828)"
       id="g16">
      <path
         d="m 237.28,680.64001 8.64,5.59998 -1.12,38.88001 18.08,-27.52002 8,5.11999 -28,42.24005 -8.16,-5.44 L 236,700 l -18.56,28.15997 -8,-5.27997 z m 343.36001,-5.28003 c -2.23999,-0.32 -4.32,0.16004 -5.92004,1.60004 C 572.96002,678.56 572,680.64001 572,683.03998 c 0,2.56 1.12,5.11999 3.52002,7.84002 2.56,2.88001 4.95996,4.47998 7.35998,4.79999 2.40003,0.32001 4.47998,-0.15997 6.24,-1.76001 1.76,-1.59997 2.72003,-3.51996 2.55999,-5.91998 0,-2.23999 -1.27997,-4.79999 -3.67999,-7.67999 -2.56,-2.88001 -4.96002,-4.47998 -7.35999,-4.96003 z m -37.44,-0.95996 4.79999,6.07996 c -1.44,0.48004 -2.71997,1.12 -3.67999,1.76001 -1.91999,1.28003 -3.03998,2.72003 -3.20001,4.32001 -0.15998,1.76001 0,3.52002 0.64001,5.59997 l 31.35999,23.68006 -8.64002,5.44 -21.44,-17.28003 6.72003,26.56 -8.47998,5.44 -7.84003,-36.79999 -1.59997,-6.56 c -0.32001,-2.40002 -0.48005,-4.16003 -0.48005,-5.44 0,-1.44 0.32001,-2.72003 0.79999,-3.84003 0.48004,-1.11999 1.12006,-2.23998 2.24005,-3.35998 0.95996,-1.12 2.23999,-2.08002 3.83997,-3.03998 1.60004,-1.11999 3.20001,-1.92004 4.96002,-2.56 z m -330.24,-5.76001 c -1.44001,-0.16003 -2.88001,0.15998 -4,0.79999 -0.64,0.47998 -1.92002,1.44 -3.52001,3.20001 l -1.28,1.44001 c 1.28,0.47998 3.04,1.44 5.28,2.88 2.4,1.44 4.16001,2.23999 5.12,2.39996 1.44,0.32001 2.72,-0.15997 3.68,-1.11999 0.96,-0.95996 1.28,-2.23999 1.28,-3.67999 0,-1.44 -0.64,-2.56 -1.76001,-3.68 -1.27999,-1.28002 -2.87999,-1.91998 -4.79998,-2.23999 z m 358.39997,-14.72003 c 3.35999,0 6.24,1.12 8.32001,3.68 0.16004,0.16003 0.47998,0.48004 0.79999,0.80004 l -9.27997,6.23999 c -0.96002,-0.79998 -1.91998,-1.11999 -2.72003,-1.11999 -1.12,0.15997 -2.56,0.79999 -4,2.07996 -1.91998,1.60003 -3.03998,3.20001 -3.51996,4.64001 -0.32001,0.96002 -0.32001,1.91998 0.15998,3.04004 0.32,0.79999 1.11999,2.07995 2.55999,3.67999 l 3.52002,4 c -0.48004,-4.80005 1.12,-8.80005 4.32001,-11.67999 3.83996,-3.20001 8.15997,-4.16003 12.95996,-2.88001 3.84003,0.95996 7.36005,3.35999 10.72003,7.03998 4,4.64002 5.91999,9.12 5.91999,13.44 -0.15998,4.47998 -1.91999,8.15998 -5.12,11.03998 -3.52002,2.88001 -7.67999,3.84003 -12.47998,2.72003 l 3.35998,4 L 580,710.56 558.40002,685.76001 c -2.72003,-3.20001 -4.64001,-5.91998 -5.44,-8 -0.96002,-2.08002 -1.28003,-4 -1.11999,-5.76001 0.15997,-1.76001 0.79998,-3.67999 2.07995,-5.59998 1.12,-1.92004 2.88001,-4 5.44,-6.08001 4.64002,-4.16004 8.64002,-6.23999 12,-6.40003 z m -363.67999,-0.63995 7.04001,6.56 c -0.32001,0.63995 -0.64,1.59997 -1.28,2.71997 -0.32001,0.47998 -0.47999,0.79998 -0.47999,1.11999 2.23999,-0.15997 4.31999,0.16004 6.39999,0.96002 1.92,0.64002 3.52,1.76001 5.12,3.20002 2.72,2.55999 4.32,5.44 4.48001,8.31994 0.15998,3.04004 -0.80001,5.60004 -3.04001,8 -1.28,1.44001 -3.04,2.40003 -4.80001,3.04004 -1.75999,0.47998 -3.67999,0.32001 -5.59999,-0.16003 -1.91999,-0.63996 -4.32,-1.75995 -7.19999,-3.68 -3.84001,-2.39996 -6.72,-4 -8.48001,-4.64001 l -0.64,0.64001 c -1.28,1.44001 -1.92,2.72004 -1.76,3.84003 0.16001,1.27997 1.12,2.71997 3.04,4.47998 1.27999,1.12 2.4,1.76001 3.68,2.08002 1.12,0.15997 2.56,-0.32001 4.16001,-1.12 l 5.28,7.20002 c -3.20002,1.91998 -6.24001,2.71997 -9.12001,2.23999 -2.87999,-0.32001 -6.08001,-2.23999 -9.6,-5.44001 -3.20001,-3.04003 -5.12001,-5.60003 -5.91999,-7.84002 -0.96001,-2.08002 -1.12001,-4.15998 -0.64,-5.76001 0.47999,-1.75995 2.07998,-4.15998 4.95999,-7.35999 l 7.83999,-8.15997 c 2.24001,-2.23999 3.68001,-4.16004 4.48002,-5.44 0.79998,-1.44001 1.59999,-3.04004 2.07998,-4.79999 z m 401.60004,-9.44 c -2.56006,0.15997 -4.80005,1.11999 -6.40003,3.19995 -1.59997,1.92004 -2.23999,4.16003 -1.76,6.72003 0.32,2.56 2.08001,4.95996 4.79998,7.35999 2.88001,2.23998 5.44,3.35998 8,3.20001 2.72003,0 4.79999,-0.96003 6.40003,-3.03998 1.59997,-1.92005 2.23999,-4.16003 1.76001,-6.72003 -0.32001,-2.56 -1.92005,-4.96002 -4.79999,-7.35999 -2.72003,-2.23999 -5.44,-3.35998 -8,-3.35998 z m -410.88004,-2.24005 6.08001,7.52002 -28.15999,23.35998 -5.76001,-6.88 4,-3.35999 c -2.88001,0.32001 -4.95999,0.32001 -6.4,-0.15997 -1.44,-0.48004 -2.55999,-1.28003 -3.52,-2.40003 -1.44,-1.76001 -2.4,-3.83996 -2.72,-6.08001 l 8.47999,-3.19996 c 0.16001,1.91999 0.80001,3.51996 1.60001,4.63996 0.96001,0.96002 1.92,1.60003 3.03999,1.92004 1.28002,0.15998 2.72,-0.16003 4.64,-0.96002 1.76001,-0.79999 5.12001,-3.20001 9.92002,-7.20001 z M 609.44,634.71997 c 1.59998,-0.15997 3.20001,-0.15997 4.79999,0.16003 3.35999,0.64002 6.56,2.40003 9.76001,4.96003 2.56,2.07995 4.47998,4.79998 5.76001,7.83996 1.27997,3.20001 1.59997,6.40003 0.95996,9.60004 -0.63995,3.35998 -2.07996,6.23999 -4.31995,9.11999 -3.52002,4.15998 -7.84002,6.56 -12.80004,7.03998 -5.12,0.47998 -9.75995,-1.11999 -13.91999,-4.64001 -4.32001,-3.51996 -6.71997,-7.83997 -7.20001,-12.95996 -0.63995,-5.12006 0.96002,-9.76001 4.32001,-13.92005 2.23999,-2.56 4.79999,-4.47998 7.84002,-5.91998 1.59998,-0.64002 3.20002,-1.12 4.79999,-1.28003 z M 168.16,617.91998 c -0.8,0.32001 -2.24,0.96002 -4.16,2.23999 l -1.60001,0.96003 c 0.96001,0.96002 2.40001,2.23998 4.32001,4.32 1.92,1.91998 3.36,3.03998 4.31999,3.52002 1.44001,0.63996 2.72,0.47998 3.84001,-0.16003 1.12,-0.79999 1.92,-1.91999 2.23999,-3.20001 0.32001,-1.44001 0,-2.71998 -0.79998,-4.15998 C 175.36,620 173.92,618.88 172.16,618.23999 c -1.44,-0.64001 -2.72,-0.64001 -4,-0.32001 z m 449.60001,-3.67999 42.56,27.35999 -5.12,8.16003 -42.56,-27.35999 z m -446.72002,-12.32001 5.12001,8.16004 c -0.48001,0.47998 -1.12001,1.27996 -1.92,2.23999 -0.48001,0.47998 -0.63999,0.79999 -0.8,0.96002 2.23999,0.47998 4.16001,1.43994 5.92,2.56 1.60001,1.11999 3.03999,2.71997 4.16,4.47998 2.08001,3.20001 2.87999,6.23999 2.23999,9.11999 -0.64,3.03998 -2.23999,5.27997 -4.79998,6.88001 -1.76001,1.11999 -3.68001,1.76001 -5.44001,1.76001 -1.91999,0 -3.84001,-0.48004 -5.44,-1.44001 -1.75999,-1.11999 -3.68001,-2.88 -6.08,-5.44 -3.03999,-3.35998 -5.44,-5.60003 -7.03999,-6.56 L 156.16,625.12 c -1.6,0.96002 -2.40001,2.08001 -2.55999,3.20001 -0.16001,1.27997 0.31999,2.88 1.75999,5.11999 0.96001,1.44 1.92,2.40003 3.03999,2.88001 0.96001,0.47998 2.40001,0.47998 4.16001,0 l 3.36,8.32 c -3.52001,1.12 -6.56,0.95997 -9.28,-0.16003 -2.72,-1.12 -5.44,-3.67999 -8,-7.67999 -2.24001,-3.67999 -3.52001,-6.71997 -3.84,-8.95996 -0.32,-2.40003 0,-4.32001 0.95999,-5.92005 0.80001,-1.59997 3.04001,-3.51996 6.56002,-5.76001 l 9.75999,-5.91998 c 2.72,-1.76001 4.64,-3.03998 5.76,-4.15997 1.12001,-1.12 2.08,-2.40003 3.19999,-4.16004 z m 473.60002,-9.11999 c -1.44,-0.15998 -2.72003,-0.15998 -4,0.16003 -2.40002,0.79999 -4.32,2.23999 -5.44,4.47998 -1.11999,2.23999 -1.11999,4.64002 -0.16003,7.03998 0.96002,2.40002 3.04004,4.32001 6.40002,6.08002 3.20001,1.59997 6.08002,1.91998 8.47998,1.28003 2.56,-0.64002 4.32001,-2.08002 5.44,-4.32001 1.12,-2.40002 1.28003,-4.64002 0.32001,-7.04004 -0.96002,-2.39996 -3.03998,-4.47998 -6.39996,-6.07996 -1.60004,-0.80004 -3.20001,-1.28002 -4.64002,-1.60003 z m -1.11999,-9.76001 c 3.35998,0 6.88,0.80005 10.71997,2.72003 2.88001,1.44 5.28003,3.52002 7.20001,6.23999 2.08002,2.88 3.20001,5.91998 3.20001,9.12 0.15998,3.35998 -0.48004,6.55999 -2.08001,9.76 -2.56,4.96003 -6.23999,8.32001 -11.03998,9.91999 -4.80005,1.60003 -9.60004,1.11999 -14.56,-1.27997 -4.96002,-2.56 -8.32001,-6.23999 -9.92004,-11.04004 -1.75995,-4.79999 -1.27997,-9.59998 1.11999,-14.56 1.44001,-3.03998 3.52002,-5.44 6.24005,-7.51996 2.71998,-2.08001 5.75995,-3.20001 9.12,-3.36004 z M 151.36,552.15997 l 3.03999,9.76001 -48.31999,14.88001 -3.04,-9.76001 z m 498.08,-14.23999 35.20001,10.23999 -2.55999,8.64002 -5.12,-1.44001 c 3.03998,4.16004 3.83997,8.64002 2.56,13.28003 -0.64002,2.07996 -1.60004,3.83997 -2.72003,5.44001 -1.27997,1.44 -2.56,2.39996 -4,2.88 -1.44001,0.63996 -2.88001,0.79999 -4.47998,0.79999 -1.60004,-0.16003 -3.68,-0.64001 -6.40003,-1.44 L 640,570.08002 l 2.71997,-9.44001 18.08002,5.27997 c 3.67999,1.12 6.23999,1.60004 7.52002,1.60004 1.11999,-0.16004 2.23999,-0.48004 3.03997,-1.12 0.96003,-0.80004 1.60004,-1.76001 1.92005,-3.04004 0.47998,-1.59997 0.47998,-3.20001 0,-4.79998 -0.48004,-1.44 -1.44,-2.71997 -2.72003,-3.52002 -1.44,-0.95996 -4,-1.91998 -8,-3.19995 l -15.84003,-4.64002 z M 143.03999,511.67999 144.64,521.12 l -18.4,3.35998 c -3.84,0.64002 -6.4,1.28003 -7.36,1.92004 -1.12,0.63996 -1.92,1.44001 -2.4,2.56 -0.48,0.95996 -0.64,2.07996 -0.32,3.35999 0.32,1.76001 0.96,3.03997 2.08,4.32 1.28,1.12 2.56,1.76001 4.16,2.07996 1.6,0.16003 4.32,-0.15997 8.48,-0.79999 l 16.32,-2.88 1.6,9.44 -36,6.56 -1.6,-8.95996 5.28,-0.96002 c -4.64,-2.40003 -7.36,-5.91999 -8.32,-10.71998 -0.32,-2.08001 -0.32,-4.16003 0.16,-6.08001 0.48,-1.76001 1.28,-3.35999 2.24,-4.47998 0.96,-1.12006 2.24,-1.92005 3.68,-2.56 1.44,-0.64002 3.52,-1.12006 6.24,-1.60004 z M 654.71997,497.28 l 50.40003,5.76001 -1.12,9.6 -18.56,-2.08001 c 3.35999,3.52002 4.64002,7.52002 4.15998,11.84002 -0.15998,2.23999 -0.79999,4.15998 -1.91999,5.75995 -0.96002,1.76001 -2.23999,3.04004 -3.67999,3.68006 -1.28003,0.79998 -2.71997,1.27997 -4.32001,1.44 -1.59997,0.15997 -4.15997,0 -7.35998,-0.32001 l -21.44001,-2.56 1.12,-9.60003 19.35998,2.23999 c 3.84003,0.48004 6.24,0.48004 7.20002,0.32 1.11999,-0.32 2.08001,-0.79998 2.72003,-1.76 0.79999,-0.79999 1.11999,-1.91999 1.27997,-3.35999 0.32,-1.59998 0,-3.03998 -0.64002,-4.32001 -0.63995,-1.44 -1.59997,-2.39999 -3.20001,-3.19998 -1.43994,-0.79999 -3.67999,-1.28 -6.87994,-1.76001 L 653.59998,506.88 Z M 130.56,473.12 c 3.36,0 6.24,1.27999 8.64,4.16 2.40001,2.72 3.68,6.88 3.83999,12.32001 0.16001,4.95999 -0.79999,8.95999 -2.87999,12 -1.92,2.88 -4.64,4.79998 -8.16,5.75998 l -1.60001,-9.75998 c 1.92002,-0.32001 3.36,-1.28 4.32001,-2.56 0.95999,-1.28 1.28,-3.04001 1.28,-5.28 0,-2.56 -0.48,-4.48001 -1.44,-5.60001 -0.64,-0.95999 -1.59999,-1.28 -2.56,-1.28 -0.8,0 -1.44,0.16001 -1.92,0.63999 -0.32001,0.48001 -0.8,1.60001 -1.11999,3.36001 -1.60001,7.84 -3.20001,12.79999 -4.48001,14.88001 -1.92,3.03998 -4.64,4.47998 -8.16,4.47998 -3.2,0.16 -5.92,-1.11999 -8.16,-3.51999 -2.24,-2.56 -3.36,-6.39999 -3.36,-11.67999 -0.16,-4.96002 0.64,-8.80002 2.24,-11.20001 1.6,-2.56 4,-4.16001 7.2,-5.12 l 1.76,9.12 c -1.44,0.32 -2.56,1.11999 -3.2,2.23999 -0.8,1.12002 -1.12,2.72 -1.12,4.64001 0,2.56 0.48,4.48001 1.12,5.44 0.64,0.79999 1.28,1.12 2.08,1.12 0.64,0 1.28,-0.32001 1.76,-0.95999 0.64,-0.96002 1.44,-4 2.56,-9.12 1.12,-5.12002 2.4,-8.80002 4.16,-10.88 1.6,-2.08002 4,-3.04001 7.2,-3.20001 z m 541.11999,-15.84 c 6.08002,-0.32001 10.88001,1.11999 14.40003,4.16 3.51996,3.04001 5.27996,7.20001 5.59997,12.63999 0.16004,4.48001 -0.64001,8.16 -2.39996,10.88 -1.76001,2.72 -4.64002,4.64002 -8.48004,6.08002 l -2.23999,-9.44 c 1.91998,-0.48001 3.35998,-1.28 4.32,-2.4 0.79999,-1.28 1.27997,-2.72 1.12,-4.48001 0,-2.56 -0.96002,-4.32001 -2.71997,-5.76001 -1.76001,-1.28 -4.48004,-1.91998 -8.48004,-1.75998 -4.32001,0.15998 -7.35999,1.12 -9.12,2.72 -1.59997,1.43998 -2.39996,3.51999 -2.39996,5.91999 0.15997,1.92001 0.79999,3.36001 1.75995,4.48001 1.11999,1.11999 3.04004,1.91998 5.60003,2.23999 l -1.11999,9.6 c -4.48004,-0.80001 -7.84003,-2.55999 -10.23999,-5.28 -2.40003,-2.72 -3.68005,-6.39999 -3.84003,-11.04 -0.32,-5.44001 1.27997,-9.76001 4.47998,-13.12 3.20002,-3.36001 7.84003,-5.11999 13.76001,-5.44 z M 108.16,445.60001 l 7.68,0.79998 -0.64,6.72001 14.72,1.6 c 2.88,0.32001 4.64,0.32001 5.11999,0.32001 0.64,-0.16001 0.96001,-0.32001 1.44001,-0.80002 0.32,-0.31998 0.48001,-0.95999 0.63999,-1.59998 0,-0.80001 -0.15998,-2.08001 -0.47999,-3.84002 l 7.52,-0.15998 c 0.64,2.4 0.95999,4.96 0.64,7.84 -0.16,1.75998 -0.64,3.35999 -1.44,4.63999 -0.64,1.27999 -1.60001,2.23999 -2.56,2.88 -0.96,0.48001 -2.24,0.79999 -3.83999,0.79999 -1.28002,0.16 -3.52001,0 -6.88001,-0.31998 l -15.84,-1.76001 -0.48,4.48001 -7.68,-0.80002 0.32,-4.47998 L 99.199997,461.12 94.720001,450.88 107.52,452.32001 Z m 3.52,-18.08002 35.99999,7.04001 -1.92,9.44 -35.99999,-6.88 z m 561.11999,-1.12 c -1.12,-0.16 -2.23999,0 -3.51996,0.16001 l 2.87994,14.23999 c 2.72003,-0.63999 4.64002,-1.75998 5.76001,-3.35999 1.12,-1.6 1.60004,-3.36001 1.12,-5.44 -0.32001,-2.07999 -1.44,-3.51999 -3.19995,-4.64001 -0.96003,-0.47999 -1.92005,-0.79999 -3.04004,-0.96 z m -574.879992,-1.44 8.800002,1.60001 -1.76,9.6 -8.799996,-1.76001 z m 574.080002,-8 c 2.56,0.32001 4.79999,1.12 6.88,2.24002 4,2.4 6.40003,6.07999 7.35999,10.87998 1.11999,5.28 0.16003,9.92001 -2.71997,13.6 -2.88001,3.84 -8,6.4 -15.36005,7.84 l -4.79999,-23.84 c -2.71997,0.64002 -4.79998,1.76001 -6.07995,3.68 C 656,433.12 655.52002,435.04001 656,437.28 c 0.32001,1.44 0.96002,2.56 2.08002,3.51999 0.95996,0.80002 2.39996,1.28 4.32,1.44 L 662.71997,452 c -3.67999,-0.48001 -6.71997,-1.92001 -9.11999,-4.16 -2.39997,-2.23999 -3.83997,-5.28 -4.63996,-9.28 -1.28003,-6.23999 -0.16003,-11.20001 3.19995,-15.04001 2.88001,-3.03998 6.72003,-5.12 11.68006,-6.07999 3.03997,-0.64001 5.75995,-0.79999 8.15997,-0.48001 z m -552.96,-17.28 7.36,2.08002 -1.76,6.39999 14.24,4 c 2.72001,0.96 4.48,1.28 4.96,1.28 0.48001,0 0.96,-0.16 1.44,-0.48001 0.47999,-0.31998 0.8,-0.79999 0.96,-1.44 0.15999,-0.79999 0.32,-2.23999 0.15999,-4 l 7.52001,1.28 c 0.16,2.40002 0,4.96002 -0.80001,7.84002 -0.47999,1.59998 -1.11999,3.03998 -2.08,4.15998 -0.95999,1.28 -1.92,2.08001 -3.03999,2.40002 -1.12,0.31998 -2.39999,0.47998 -4,0.31998 -1.12,-0.16 -3.36,-0.63999 -6.72,-1.59998 l -15.36,-4.32 -1.28,4.32 -7.36,-2.24002 1.28,-4.16 -7.04,-2.07999 -2.88,-10.88 12.48,3.51999 z M 681.28003,369.12 l 13.75995,37.76 -8,2.88001 -5.12,-14.08002 -39.51996,14.4 L 638.88,400.48001 678.40002,386.07999 673.28003,372 Z M 135.03999,360 168.64,374.39999 165.11999,382.72 160,380.48001 c 1.28,2.07999 2.08,4.31998 2.24,6.72 0.15999,2.4 -0.16,4.79999 -1.12001,7.03998 -0.95999,2.24002 -2.39999,4 -4.15998,5.44 -1.76001,1.28 -3.68001,2.08002 -5.92002,2.08002 -2.07998,0 -4.79999,-0.64001 -7.83999,-2.08002 l -21.44,-9.11999 3.84,-8.95999 15.51999,6.72 c 4.80001,2.07998 7.68001,3.19998 8.96001,3.19998 1.12,0.16 2.24001,0 3.2,-0.63999 1.11999,-0.64001 1.92,-1.6 2.39999,-2.88 0.64002,-1.60001 0.80001,-3.04001 0.48001,-4.64001 -0.32,-1.59998 -0.96,-2.87998 -1.92,-3.84 -1.12001,-0.95999 -4,-2.39999 -8.8,-4.47998 l -14.24,-6.24002 z m 0.64,-26.88 11.20001,6.55999 3.36,-5.75998 6.56,4 -3.36,5.59998 12.8,7.52002 c 2.56,1.6 4,2.39999 4.48,2.56 0.64,0.16 1.12,0.16 1.60001,-0.16001 0.47999,-0.16 0.95999,-0.64001 1.28,-1.11999 0.31999,-0.80002 0.79998,-2.08002 1.11999,-3.84 l 6.88001,3.19998 c -0.32001,2.4 -1.12001,4.80002 -2.56002,7.20001 -0.95999,1.60001 -2.07998,2.72001 -3.19999,3.68 -1.28,0.95999 -2.4,1.44 -3.51999,1.44 -1.12001,0.16 -2.56002,-0.16 -4,-0.64001 C 167.2,362.88 165.28,361.92001 162.24,360.16 l -13.76,-8.16 -2.24,3.84 -6.56001,-4 2.24001,-3.84 -6.4,-3.67999 z m 497.91999,-1.60001 c -2.39997,-0.31998 -5.12,0.64001 -8.15998,2.56 -3.35998,2.24002 -5.44,4.16 -6.23999,6.08001 -1.28003,2.72 -1.11999,5.12 0.47998,7.51999 1.12,1.92002 3.03998,2.88001 5.44001,3.20001 2.40002,0.32001 5.28002,-0.64001 8.47998,-2.72 3.52002,-2.23999 5.60003,-4.64001 6.24005,-6.88 0.79998,-2.23999 0.47998,-4.48001 -0.80005,-6.4 -1.27997,-1.92001 -3.03998,-3.04 -5.44,-3.36001 z m 0,-9.44 c 4.32,0.64001 7.84002,2.88 10.24005,6.56002 2.23999,3.51999 2.71997,7.35999 1.59997,11.68 l 15.20001,-9.92002 5.27997,8 -42.23999,27.84 -4.96002,-7.51999 4.48004,-2.88 c -2.56,-0.16001 -4.79999,-0.79999 -6.88,-1.91999 -1.91999,-1.12002 -3.52002,-2.56002 -4.64002,-4.32 -2.23999,-3.52002 -2.88,-7.52002 -1.59997,-11.84 1.11999,-4.32001 4.32,-8.16 9.27996,-11.52002 5.28003,-3.51999 10.08002,-4.79999 14.24,-4.16 z m -459.35998,-6.4 c -1.91999,0.16001 -3.52,1.12 -4.8,2.56 -1.28,1.76001 -1.76001,3.68002 -1.28,5.60001 0.32,2.08001 1.59999,3.83999 3.68,5.44 l 8.8,-11.51999 c -2.24001,-1.60001 -4.31999,-2.40002 -6.4,-2.08002 z m 1.12,-8.32 c 4.8,-0.31998 10.08,1.76001 15.84,6.40002 L 176.48,333.12 c 2.4,1.6 4.63999,2.39999 6.72,2.08001 2.24,-0.16 4,-1.12002 5.28,-2.88 0.96,-1.28 1.44,-2.56 1.44,-3.84 0,-1.28 -0.64,-2.72 -1.76,-4.32001 l 7.2,-6.72 c 2.08,3.20001 2.88,6.4 2.72,9.60001 -0.16,3.35998 -1.44,6.56 -3.84,9.75998 -3.84001,5.12002 -8.32,7.52002 -13.6,7.36001 -4,0 -8.16,-1.6 -12.16,-4.80001 -4.80001,-3.68 -7.68,-7.84 -8.48,-12.31998 -0.8,-4.64002 0.32001,-8.96002 3.2,-12.80002 3.36,-4.31998 7.36,-6.56 12.16,-6.88 z M 604.64001,282.56 l 6.23999,6.56 -4,3.67999 c 5.12,-0.47998 9.44001,1.12002 12.79999,4.64001 1.44001,1.60001 2.40003,3.35999 3.03998,5.12 0.64001,1.92001 0.80005,3.51999 0.64001,4.95999 -0.32,1.44 -0.79998,2.88 -1.76,4.16 -0.79999,1.28 -2.39997,2.88001 -4.47998,4.80002 L 600.47998,332 l -6.56,-7.20001 13.76001,-12.63999 c 2.88001,-2.72 4.64002,-4.64001 5.12,-5.6 0.64001,-1.12 0.79999,-2.23999 0.64001,-3.35999 -0.15997,-1.12002 -0.64001,-2.24002 -1.59997,-3.20001 -1.12006,-1.12 -2.40003,-1.92001 -4,-2.39999 -1.60004,-0.32001 -3.20002,-0.16001 -4.64002,0.47998 -1.44,0.64001 -3.67999,2.40002 -6.72003,5.28 l -12.15997,11.20001 -6.56,-7.20001 z m -39.67999,-4.16001 c -1.44,-0.16 -2.72003,0.32001 -3.52002,1.44001 -0.79999,1.11999 -1.11999,2.23999 -0.96002,3.67999 0.16003,1.44 0.80005,2.56 2.08002,3.52002 1.28003,1.11999 3.03998,1.75998 4.96002,1.75998 1.44,0.16 2.71997,-0.31998 3.83996,-0.95999 C 572,287.35999 573.12,286.07999 574.56,284.32001 l 1.28003,-1.60001 c -1.28003,-0.32001 -3.20002,-1.28 -5.60004,-2.39999 -2.56,-1.28 -4.15997,-1.92002 -5.27997,-1.92002 z M 221.44,270.72 c -2.56,-0.48001 -4.8,0.16 -6.88,1.76001 -1.92,1.59998 -2.88001,3.67999 -3.04,6.23999 -0.16,2.56 0.96,5.28 3.36,8.16 2.23999,2.72001 4.64,4.32001 7.2,4.79999 2.56,0.32001 4.8,-0.16 6.88001,-1.75998 1.91999,-1.6 2.87999,-3.68002 3.03999,-6.40002 0.16,-2.56 -0.96001,-5.28 -3.36,-8 -2.24001,-2.87998 -4.64,-4.47998 -7.2,-4.79999 z m 2.08,-8.79999 c 5.12,0.47998 9.28,2.87998 12.80001,7.19999 3.51999,4.32 5.11999,8.95999 4.64,14.08001 -0.48001,5.12 -2.88001,9.28 -7.04001,12.79999 -2.56,2.07999 -5.59999,3.51999 -8.80001,4.32001 -3.36,0.79999 -6.55999,0.47998 -9.59999,-0.80002 -3.19999,-1.28 -6.08,-3.51999 -8.64,-6.72 -2.08,-2.56 -3.52,-5.44 -4.16,-8.79999 -0.64,-3.35999 -0.48,-6.56 0.8,-9.60001 1.28,-3.04 3.36,-5.75998 6.08001,-8 C 213.92,262.88 218.56,261.44 223.52,261.92001 Z M 573.44,258.88 c 3.03998,0.16001 6.23999,1.76001 10.08002,4.63999 3.35998,2.72 5.59998,5.12002 6.56,7.20001 1.11999,2.07999 1.44,4 1.11999,5.76001 C 590.88,278.39999 589.44,280.79999 586.88,284.16 l -7.20001,8.79999 c -1.91998,2.56 -3.35998,4.48001 -4,5.92001 -0.64001,1.44001 -1.27997,3.04001 -1.76001,4.96 l -7.51996,-5.91999 c 0.31995,-0.80001 0.63996,-1.6 1.12,-2.88 0.15997,-0.64002 0.32001,-0.96002 0.47998,-1.12 -2.40002,0.15998 -4.47998,0.15998 -6.56,-0.48001 -1.91998,-0.48001 -3.67999,-1.44 -5.44,-2.72 -2.88,-2.39999 -4.64002,-5.11999 -5.12,-8 -0.32,-2.88 0.32001,-5.6 2.24,-8.16 1.44,-1.60001 2.88,-2.72 4.64001,-3.35999 1.76001,-0.64001 3.67999,-0.80002 5.59997,-0.32001 1.92005,0.32001 4.48005,1.44001 7.52002,3.04001 4,2.07999 7.03998,3.35999 8.79999,3.84 l 0.64002,-0.64001 c 1.11999,-1.44001 1.59997,-2.88001 1.44,-4 -0.32001,-1.28 -1.44,-2.56 -3.35999,-4.16001 -1.44,-1.11999 -2.72003,-1.75998 -3.84002,-1.75998 -1.27997,0 -2.56,0.31998 -4.15998,1.28 l -5.92004,-6.56 C 567.52002,259.67999 570.56,258.72 573.44,258.88 Z m -50.40002,-23.52 c -0.95996,0 -1.91998,0.16 -2.88001,0.48 -1.91998,0.8 -3.51996,2.4 -4.63995,4.8 l 13.11999,6.39999 c 1.12,-2.55999 1.44001,-4.79999 0.79999,-6.71998 -0.64001,-1.92002 -1.76001,-3.36 -3.52002,-4.32001 -0.95996,-0.32001 -1.91998,-0.64 -2.88,-0.64 z m -0.95996,-8 c 2.07995,0.16 4.32,0.8 6.55999,1.75999 4.79999,2.40001 7.83997,5.92 9.12,10.56 1.27997,4.64002 0.32001,10.24001 -3.04004,16.80002 L 512.79999,245.92 c -1.28,2.56 -1.44,4.96 -0.79999,7.04001 0.64001,2.07998 1.91998,3.68 4,4.64 1.28003,0.63998 2.71997,0.79998 4,0.47998 1.28003,-0.31998 2.56,-1.12 3.84003,-2.55999 l 8,5.76 c -2.72003,2.56 -5.60004,4.16 -8.96003,4.64001 -3.20001,0.47998 -6.55999,-0.16 -10.23999,-1.92001 -5.76001,-2.72 -8.96002,-6.72 -9.92001,-11.84 -0.79999,-4 0,-8.32 2.23999,-12.96 2.72,-5.44001 6.08002,-8.96 10.56003,-10.72 2.07996,-0.80001 4.32001,-1.12 6.56,-1.12 z M 244,227.03999 246.56,233.44 c -1.59999,0.48 -2.88001,1.12 -4.16001,1.92 -1.11999,0.8 -1.75999,1.60001 -1.91999,2.39999 -0.32,0.96001 0.16,2.08001 1.12001,3.68001 l 1.43998,2.23999 6.08,-3.83999 4.16001,6.4 -6.24001,3.84 15.52001,24.64 -8.16001,5.12 -15.51999,-24.48 -4.48001,2.71999 -4.15999,-6.4 4.64,-2.87999 -1.6,-2.24 c -1.60001,-2.72 -2.56,-4.80001 -2.72,-6.4 -0.32,-1.6 0,-3.36 0.96,-5.12001 1.12,-1.75999 2.72,-3.36 4.96,-4.79999 2.4,-1.44 4.8,-2.56001 7.52,-3.20001 z M 483.20001,212.8 c 2.23999,-0.16 4.79999,0.31999 7.35999,1.12 4.32,1.28 7.36001,3.36 9.28,5.92 1.92001,2.72 2.88,6.08 2.72,10.08 l -9.60001,-1.28 c 0.32001,-1.92 0,-3.52001 -0.79999,-4.8 -0.80001,-1.12 -2.08001,-2.08001 -3.83999,-2.72001 -2.24002,-0.63999 -4.32001,-0.47999 -6.24002,0.64 -1.91999,1.28 -3.35999,3.68001 -4.63999,7.36 -1.28,4.16001 -1.44,7.36001 -0.64001,9.44001 0.80002,2.24 2.40002,3.68 4.80002,4.32 1.75998,0.64 3.35998,0.64 4.79998,0 1.44001,-0.64 2.72001,-2.24 4,-4.48001 l 8.64002,4.48001 c -2.4,3.84 -5.12,6.4 -8.48001,7.68 -3.35999,1.28 -7.35999,1.11999 -11.84,-0.16001 -5.11999,-1.75999 -8.64001,-4.64 -10.72,-8.79998 -1.92001,-4.16001 -2.07999,-9.12001 -0.16,-14.88001 1.76001,-5.75999 4.80001,-9.75999 8.80001,-12 2.07999,-1.11999 4.31998,-1.75999 6.56,-1.92 z M 401.28,206.72 c -2.07999,0 -3.84,0.8 -5.28,2.39999 -1.44,1.44001 -2.07999,3.52001 -2.07999,6.24001 l 14.56,0.16 c -0.16,-2.88 -0.80002,-4.96 -2.24002,-6.55999 C 404.95999,207.52 403.20001,206.88 401.28,206.72 Z m -56.48001,-1.92 c 1.92001,0.16001 3.52002,0.48 4.96002,1.28 3.03998,1.28 5.44,3.84 7.35999,7.36 l -8.96,3.67999 C 347.35999,215.36 346.39999,214.08 345.12,213.28 c -1.28,-0.64 -2.88001,-0.8 -4.63999,-0.48 -2.40002,0.48 -4.16,1.76 -5.12002,3.68 -1.12,1.91999 -1.28,4.8 -0.47999,8.63999 0.96,4.16001 2.24,7.04001 4,8.48002 1.91999,1.43998 4,1.91999 6.4,1.43998 1.76001,-0.31999 3.20001,-1.11999 4,-2.39999 0.95999,-1.28 1.44,-3.2 1.44,-5.76 l 9.60001,-0.32 c 0,4.47999 -1.28,8 -3.52002,10.72 -2.23999,2.88 -5.75998,4.64 -10.4,5.6 -5.27999,1.12 -9.75998,0.32 -13.6,-2.4 -3.84,-2.56 -6.23999,-6.87999 -7.51999,-12.80001 -1.28,-5.92 -0.63999,-10.71998 1.76001,-14.71998 2.56,-4 6.39999,-6.56002 11.67999,-7.68001 2.23999,-0.31999 4.32001,-0.48 6.07999,-0.48 z m -49.59998,-0.96 c 2.56,-0.16001 4.79999,0 6.72,0.8 4,1.44 6.87998,4.32001 8.79999,8.64 l -9.44,4 c -1.44,-2.24001 -2.88001,-3.67999 -4.63999,-4.31999 -1.76001,-0.48001 -4,-0.32001 -6.72,0.79998 -2.72,0.96001 -4.64001,2.40001 -5.76001,4.16001 -0.80001,1.11999 -0.95999,2.24 -0.48001,3.52 0.48001,1.12 1.28,1.92 2.56,2.23999 1.60001,0.64002 4.80002,0.64002 9.92001,-0.15999 5.12,-0.64 8.96,-0.8 11.68,-0.48001 2.55999,0.48001 4.95999,1.28002 7.04,2.88001 1.91999,1.6 3.51999,3.83999 4.63999,6.88 1.12002,2.72 1.28,5.44 0.64001,8.48 -0.64001,2.88 -2.08001,5.44 -4.32,7.68001 -2.4,2.23999 -5.60001,4 -9.76001,5.59999 -5.91999,2.23999 -11.03998,2.56 -15.35999,1.11999 -4.16,-1.59999 -7.67999,-4.95999 -10.23999,-9.92 L 289.44,241.28 c 1.76001,2.88 3.68,4.8 5.91999,5.6 2.24002,0.79999 4.96002,0.64 7.84002,-0.48001 3.03998,-1.11999 5.12,-2.72 6.23999,-4.47999 0.95999,-1.92 1.28,-3.84 0.63999,-5.44 -0.47998,-1.12 -1.12,-2.08001 -2.07999,-2.56 -0.95999,-0.48 -2.39999,-0.80001 -4.32001,-0.80001 -1.28,0.16001 -4,0.32001 -8.32,0.80001 -5.59998,0.8 -9.91999,0.47999 -12.63999,-0.48 -3.84,-1.6 -6.56,-4.16 -8,-8 -0.79999,-2.40001 -0.95999,-4.8 -0.48001,-7.52 0.64001,-2.56 1.92001,-4.95999 4.16,-7.04 2.08002,-2.08 5.12,-3.68 8.64002,-5.12001 3.03998,-1.11999 5.75998,-1.75999 8.16,-1.91999 z M 429.44,201.28 438.23999,202.72 437.44,208 c 3.84,-3.52 8.16001,-4.96001 12.95999,-4.16 2.08002,0.32 4,0.96 5.60001,2.08 1.60001,0.96 2.72,2.24 3.51999,3.52 0.64001,1.28 1.12002,2.72 1.12002,4.31999 0.15998,1.60001 0,3.68001 -0.48001,6.56002 l -3.51999,22.55999 -9.6,-1.6 2.88,-18.56 c 0.63999,-3.84 0.79999,-6.39999 0.63999,-7.68001 -0.16001,-1.11999 -0.79999,-2.07998 -1.60001,-2.87999 -0.79999,-0.8 -1.75998,-1.28 -3.19998,-1.6 -1.60001,-0.16001 -3.20001,0 -4.64001,0.8 -1.44001,0.64 -2.56,1.75999 -3.19999,3.03999 C 437.12,215.84 436.48001,218.56 435.84,222.72 l -2.72,16.31999 -9.44001,-1.43998 z m -55.20001,-0.16001 3.68002,36.48002 -9.76001,0.95999 -3.51999,-36.48 z m 26.56,-1.75999 c 5.44,0 9.76001,1.92 12.80002,5.60001 3.19998,3.51999 4.63998,9.11999 4.47998,16.47999 l -24.31998,-0.16 c 0,2.88 0.79999,5.11999 2.23999,6.72 1.44,1.60001 3.35999,2.39999 5.60001,2.39999 1.44,0 2.72,-0.31999 3.83999,-1.11999 0.95999,-0.8 1.76001,-2.24001 2.4,-4 l 9.6,1.6 c -1.28,3.68 -3.20001,6.23999 -5.92001,8.15999 -2.72,1.76001 -6.07999,2.72 -10.07999,2.72 -6.39999,-0.15998 -11.04001,-2.23999 -14.08001,-6.39999 -2.4,-3.36 -3.68,-7.68001 -3.51999,-12.64 0,-6.08 1.6,-10.88 4.80001,-14.24 3.19999,-3.51999 7.19999,-5.12 12.15998,-5.12 z m -27.84,-12.16 0.80002,8.96 -9.60001,0.95999 -0.95999,-8.95999 z"
         style="fill:#000000;fill-opacity:1;fill-rule:evenodd;stroke:none"
         id="path18"
         inkscape:connector-curvature="0" />
    </g>
    <g
       transform="matrix(0.69975739,0,0,0.69975739,33.005726,114.55207)"
       id="layer1-9"
       inkscape:label="Layer 1">
      <path
         inkscape:connector-curvature="0"
         id="path21"
         d="m 124.45357,143.28955 -0.54137,-0.0634 -0.49216,-0.10288 -0.49215,-0.10288 -0.41834,-0.11735 -0.41833,-0.11736 -0.27069,-0.0877 -0.27068,-0.0877 -0.0971,-0.0658 -0.0971,-0.0658 h -0.0652 -0.0652 l -0.52534,-0.2478 -0.52534,-0.2478 -0.46894,-0.27835 -0.46894,-0.27835 -0.44294,-0.35296 -0.44294,-0.35296 -0.34786,-0.36358 -0.34785,-0.36359 -0.19352,-0.27242 -0.19351,-0.27243 -0.0598,-0.0967 -0.0598,-0.0967 -0.21553,-0.44294 -0.21553,-0.44294 -0.0569,-0.13766 -0.0569,-0.13766 v -0.0715 -0.0715 h 0.99987 0.99986 l 0.1167,0.28299 0.11669,0.28299 0.22123,0.31991 0.22123,0.3199 0.22481,0.25233 0.22481,0.25232 0.34451,0.29666 0.34451,0.29666 0.33872,0.22616 0.33872,0.22616 h 0.0361 0.0361 l 0.11737,0.0889 0.11737,0.0889 0.36912,0.16271 0.36912,0.16272 0.39372,0.13415 0.39373,0.13416 0.27068,0.0792 0.27069,0.0792 0.44294,0.0747 0.44294,0.0747 0.56598,0.0565 0.56598,0.0565 0.54432,-0.0317 0.54433,-0.0317 0.58763,-0.0923 0.58764,-0.0923 0.34451,-0.0838 0.34451,-0.0838 0.12304,-0.0496 0.12304,-0.0496 0.0855,-0.0435 0.0855,-0.0435 h 0.0792 0.0792 l 0.13063,-0.071 0.13063,-0.071 0.31991,-0.13547 0.3199,-0.13547 0.11737,-0.0888 0.11737,-0.0888 h 0.0404 0.0404 l 0.16379,-0.11115 0.1638,-0.11116 0.0722,-0.0598 0.0722,-0.0598 0.30302,-0.24533 0.30303,-0.24533 0.23191,-0.26863 0.23192,-0.26862 0.1869,-0.26939 0.18691,-0.26939 0.15593,-0.33758 0.15592,-0.33757 0.0632,-0.12304 0.0633,-0.12304 0.062,-0.27069 0.062,-0.27068 0.035,-0.0492 0.035,-0.0492 0.0875,-0.61863 0.0875,-0.61863 -0.0266,-0.83323 -0.0266,-0.83324 -0.078,-0.27068 -0.078,-0.27069 -0.0814,-0.24608 -0.0814,-0.24607 -0.19291,-0.36912 -0.19291,-0.36912 -0.22781,-0.34451 -0.22782,-0.34451 -0.74025,-0.74108 -0.74026,-0.74108 -0.42588,-0.32508 -0.42588,-0.32508 -0.11549,-0.0609 -0.1155,-0.0609 -0.0246,-0.0307 -0.0246,-0.0307 -0.14268,-0.0973 -0.14268,-0.0973 -0.128,-0.0846 -0.12801,-0.0846 -0.14765,-0.0814 -0.14765,-0.0814 -0.23194,-0.16478 -0.23195,-0.16478 -0.12487,-0.0313 -0.12487,-0.0313 v -0.0373 -0.0373 l -1.28311,-0.65874 -1.2831,-0.65873 -0.37792,-0.20768 -0.37792,-0.20768 -0.19686,-0.10205 -0.19687,-0.10205 -0.14764,-0.0789 -0.14765,-0.0789 -0.24608,-0.15699 -0.24608,-0.15699 -0.2215,-0.14343 -0.2215,-0.14343 -0.49212,-0.3532 -0.49213,-0.3532 -0.38479,-0.34956 -0.38479,-0.34957 -0.29561,-0.33076 -0.29561,-0.33077 -0.077,-0.14764 -0.077,-0.14765 -0.0368,-0.0246 -0.0368,-0.0246 -0.0784,-0.17226 -0.0784,-0.17225 -0.043,-0.0738 -0.043,-0.0738 -0.0813,-0.17226 -0.0813,-0.17225 -0.0798,-0.29529 -0.0798,-0.2953 -0.0401,-0.22147 -0.0401,-0.22147 -10e-4,-0.54137 -0.001,-0.54137 0.0683,-0.27069 0.0683,-0.27069 0.0481,-0.14764 0.0481,-0.14765 0.0818,-0.17225 0.0818,-0.17226 0.0465,-0.0738 0.0464,-0.0738 0.0596,-0.12304 0.0596,-0.12303 0.28395,-0.35219 0.28395,-0.35219 0.20211,-0.16008 0.20211,-0.16007 0.16981,-0.11524 0.16981,-0.11523 h 0.0394 0.0394 l 0.0891,-0.0984 0.0891,-0.0984 h 0.1119 0.11189 l 0.065,-0.0636 0.065,-0.0636 0.34451,-0.1143 0.34451,-0.1143 0.41833,-0.0938 0.41834,-0.0938 0.56149,-0.0462 0.5615,-0.0462 0.0414,0.0256 0.0414,0.0256 v 0.70336 0.70335 l -0.43423,0.0308 -0.43424,0.0308 -0.34091,0.073 -0.34091,0.073 -0.25032,0.0895 -0.25032,0.0895 -0.12937,0.0848 -0.12937,0.0848 h -0.0479 -0.0479 l -0.36207,0.35682 -0.36207,0.35681 -0.15652,0.29987 -0.15651,0.29988 -0.0743,0.31532 -0.0743,0.31532 -7.4e-4,0.379 -7.4e-4,0.379 0.0541,0.2608 0.0541,0.26081 0.0997,0.22147 0.0997,0.22147 0.0745,0.14764 0.0745,0.14765 0.17384,0.26709 0.17383,0.26708 0.34841,0.3671 0.34841,0.36711 0.39372,0.30302 0.39373,0.30302 0.27068,0.17487 0.27069,0.17487 0.22037,0.13873 0.22037,0.13872 0.321,0.1722 0.321,0.1722 0.14765,0.0689 0.14765,0.0689 0.0738,0.0422 0.0738,0.0422 0.44295,0.22222 0.44294,0.22221 0.12304,0.0532 0.12303,0.0532 0.56598,0.29945 0.56598,0.29946 0.36912,0.19287 0.36912,0.19288 0.19686,0.11864 0.19686,0.11864 0.14765,0.0785 0.14765,0.0785 0.0986,0.0602 0.0986,0.0602 0.31975,0.19506 0.31973,0.19506 0.41405,0.28909 0.41405,0.2891 0.34879,0.27811 0.3488,0.27811 0.40504,0.36017 0.40505,0.36017 0.36229,0.42786 0.36229,0.42786 0.26619,0.39684 0.2662,0.39685 0.18095,0.36599 0.18095,0.366 0.0969,0.22147 0.0969,0.22147 0.12275,0.41833 0.12275,0.41834 0.0525,0.24608 0.0525,0.24607 0.0579,0.37982 0.0579,0.3798 -0.0275,0.92441 -0.0275,0.9244 -0.12652,0.51677 -0.12651,0.51676 -0.0689,0.24955 -0.0689,0.24955 -0.24486,0.51527 -0.24485,0.51526 -0.26138,0.39176 -0.26139,0.39175 -0.54467,0.54178 -0.54467,0.54178 -0.44294,0.29418 -0.44294,0.29417 -0.0246,0.031 -0.0246,0.031 -0.12303,0.0371 -0.12304,0.0371 -0.0738,0.0604 -0.0738,0.0604 -0.22147,0.10328 -0.22147,0.10327 -0.44001,0.17628 -0.44002,0.17628 -0.49508,0.13983 -0.49509,0.13983 -0.29529,0.0602 -0.29529,0.0602 -0.22147,0.0427 -0.22148,0.0427 -0.50638,0.0513 -0.50639,0.0513 -0.67479,-0.006 -0.67479,-0.006 -0.54137,-0.0634 z M 55.330183,128.8939 v -13.92921 l 0.824363,0.0135 0.824362,0.0135 0.01239,13.91573 0.01239,13.91572 h -0.836752 -0.836753 z m 2.805293,0.001 v -13.92803 l 0.972009,0.002 0.972009,0.002 0.135343,0.21375 0.135343,0.21376 v 0.0475 0.0475 l 0.09843,0.0891 0.09843,0.0891 v 0.0873 0.0873 l 0.06543,0.0654 0.06543,0.0654 0.06991,0.12875 0.06991,0.12875 0.102425,0.19076 0.102424,0.19075 0.115052,0.19686 0.115052,0.19686 0.09083,0.17226 0.09083,0.17225 0.0462,0.0738 0.0462,0.0738 0.28964,0.51677 0.28964,0.51676 0.03492,0.0738 0.03492,0.0738 0.118686,0.19686 0.118687,0.19686 0.09221,0.17226 0.09221,0.17225 0.138013,0.24608 0.138013,0.24608 0.191094,0.33017 0.191094,0.33017 0.319831,0.58032 0.319831,0.58032 0.04929,0.0738 0.04929,0.0738 0.06999,0.15157 0.06999,0.15156 0.07667,0.0636 0.07667,0.0636 v 0.0698 0.0698 l 0.0881,0.13335 0.0881,0.13335 0.05789,0.0984 0.05789,0.0984 0.15352,0.2953 0.15352,0.29529 0.135292,0.22147 0.135292,0.22147 0.25422,0.44928 0.254219,0.44929 v 0.0476 0.0476 l 0.09843,0.0891 0.09843,0.0891 v 0.0832 0.0832 l 0.09843,0.0891 0.09843,0.0891 v 0.0707 0.0707 l 0.09843,0.12513 0.09843,0.12514 v 0.0596 0.0596 l 0.09843,0.0891 0.09843,0.0891 v 0.0873 0.0873 l 0.07017,0.0702 0.07017,0.0702 0.07729,0.16713 0.07729,0.16712 0.129047,0.22147 0.129047,0.22147 0.215651,0.36305 0.215651,0.36304 v 0.06 0.06 l 0.09843,0.0891 0.09843,0.0891 v 0.0832 0.0832 l 0.09843,0.0891 0.09843,0.0891 v 0.0682 0.0682 l 0.0881,0.13335 0.0881,0.13335 0.06017,0.0984 0.06017,0.0984 0.09852,0.19686 0.09852,0.19686 0.110024,0.18204 0.110025,0.18205 0.284666,0.51741 0.284667,0.51741 0.04754,0.0294 0.04754,0.0294 v 0.0895 0.0895 l 0.06896,0.0572 0.06896,0.0572 0.140118,0.281 0.140119,0.281 0.109745,0.16523 0.109746,0.16524 0.125864,0.2531 0.125864,0.25309 0.09367,0.14765 0.09367,0.14765 0.258555,0.46755 0.258555,0.46754 0.112172,0.21474 0.112173,0.21474 0.05791,0.0698 0.05791,0.0698 0.130513,0.25686 0.130513,0.25686 0.109255,0.17225 0.109255,0.17226 0.123809,0.24608 0.12381,0.24607 0.09512,0.14765 0.09512,0.14765 0.09177,0.17225 0.09177,0.17226 0.13822,0.24608 0.13822,0.24607 0.402745,0.71363 0.402746,0.71363 0.03558,0.0738 0.03558,0.0738 0.118853,0.19686 0.118854,0.19686 0.09956,0.18122 0.09957,0.18122 0.04613,0.0285 0.04613,0.0285 0.0323,0.14709 0.0323,0.14708 h 0.04531 0.0453 v -12.37774 -12.37773 h 0.836666 0.836666 v 13.92802 13.92803 h -0.954473 -0.954513 l -0.285246,-0.50446 -0.285245,-0.50446 -0.06446,-0.065 -0.06446,-0.065 v -0.0748 -0.0748 l -0.09843,-0.12514 -0.09843,-0.12514 v -0.0596 -0.0596 l -0.09843,-0.0891 -0.09843,-0.0891 v -0.0682 -0.0682 l -0.0881,-0.13335 -0.0881,-0.13335 -0.06054,-0.0984 -0.06054,-0.0984 -0.07622,-0.14765 -0.07622,-0.14765 -0.119304,-0.19686 -0.119304,-0.19686 -0.07756,-0.14765 -0.07756,-0.14764 -0.118946,-0.19687 -0.118947,-0.19686 -0.0994,-0.19686 -0.0994,-0.19686 -0.09686,-0.14765 -0.09686,-0.14765 -0.130708,-0.24608 -0.130707,-0.24607 -0.297741,-0.51677 -0.297742,-0.51676 -0.311098,-0.55562 -0.311098,-0.55561 v -0.0311 -0.0311 l -0.06823,-0.0777 -0.06823,-0.0777 -0.143479,-0.27068 -0.14348,-0.27069 -0.0793,-0.12304 -0.0793,-0.12304 -0.152408,-0.27068 -0.152408,-0.27069 -0.069,-0.14765 -0.069,-0.14764 -0.04125,-0.0406 -0.04125,-0.0406 -0.18455,-0.32852 -0.18455,-0.32853 -0.0987,-0.19686 -0.0987,-0.19686 -0.09765,-0.14765 -0.09765,-0.14765 -0.06204,-0.12274 -0.06204,-0.12273 -0.600095,-1.05844 -0.600094,-1.05844 -0.04599,-0.053 -0.04599,-0.053 -0.03645,-0.11926 -0.03645,-0.11926 -0.05994,-0.0738 -0.05994,-0.0738 -0.221498,-0.39373 -0.221497,-0.39372 -0.03499,-0.0738 -0.03499,-0.0738 -0.120338,-0.19686 -0.120338,-0.19687 -0.07133,-0.15156 -0.07133,-0.15157 -0.07667,-0.0636 -0.07667,-0.0636 v -0.0698 -0.0698 l -0.0881,-0.13335 -0.0881,-0.13335 -0.06017,-0.0984 -0.06017,-0.0984 -0.09786,-0.19686 -0.09786,-0.19686 -0.123843,-0.19686 -0.123844,-0.19687 -0.0509,-0.0984 -0.0509,-0.0984 -0.108203,-0.17954 -0.108203,-0.17954 -0.226342,-0.41105 -0.226342,-0.41104 -0.721946,-1.27961 -0.721948,-1.27961 -0.04932,-0.0738 -0.04932,-0.0738 -0.06999,-0.15157 -0.06999,-0.15156 -0.07667,-0.0636 -0.07667,-0.0636 v -0.0698 -0.0698 l -0.0881,-0.13335 -0.0881,-0.13335 -0.06017,-0.0984 -0.06017,-0.0984 -0.09786,-0.19687 -0.09786,-0.19686 -0.123844,-0.19686 -0.123843,-0.19686 -0.0509,-0.0984 -0.0509,-0.0984 -0.118503,-0.19686 -0.118502,-0.19686 -0.09402,-0.17226 -0.09402,-0.17225 -0.08669,-0.16567 -0.08669,-0.16567 -0.28865,-0.47413 -0.288649,-0.47414 -1.97e-4,-0.0615 -1.76e-4,-0.0615 h -0.04922 -0.04921 v 12.32852 12.32852 h -0.836645 -0.836666 v -13.92803 z m 20.701773,13.79268 0.03308,-0.13534 0.169561,-0.46755 0.169561,-0.46755 0.06463,-0.19686 0.06463,-0.19686 0.180272,-0.49216 0.180271,-0.49216 0.09119,-0.27068 0.09119,-0.27069 0.253288,-0.71363 0.253289,-0.71362 0.06584,-0.19687 0.06584,-0.19686 0.180271,-0.49215 0.180272,-0.49216 0.09115,-0.27069 0.09115,-0.27068 0.2294,-0.63981 0.2294,-0.6398 0.08991,-0.27069 0.08991,-0.27068 0.180126,-0.49216 0.180126,-0.49216 0.09119,-0.27068 0.09119,-0.27069 0.253288,-0.71362 0.253288,-0.71363 0.06584,-0.19686 0.06584,-0.19687 0.180272,-0.49215 0.180271,-0.49216 0.09119,-0.27069 0.09119,-0.27068 0.253288,-0.71363 0.253289,-0.71363 0.06639,-0.19686 0.06639,-0.19686 0.227604,-0.6398 0.227604,-0.63981 0.07433,-0.22147 0.07433,-0.22147 0.0286,-0.0738 0.0286,-0.0738 0.168381,-0.46754 0.168381,-0.46755 0.07315,-0.24608 0.07315,-0.24608 0.04698,-0.0855 0.04698,-0.0855 0.144721,-0.43123 0.14472,-0.43123 0.12973,-0.36912 0.12973,-0.36911 0.02763,-0.0738 0.02763,-0.0738 0.168381,-0.46755 0.168381,-0.46755 0.07315,-0.24608 0.07315,-0.24607 0.04698,-0.0855 0.04698,-0.0855 0.14472,-0.43123 0.144721,-0.43123 0.12973,-0.36912 0.12973,-0.36912 0.02763,-0.0738 0.02763,-0.0738 0.168381,-0.46755 0.168381,-0.46755 0.07315,-0.24608 0.07315,-0.24608 0.04698,-0.0855 0.04698,-0.0855 0.144721,-0.43124 0.144721,-0.43123 0.129421,-0.36911 0.129421,-0.36912 0.0422,-0.0984 0.0422,-0.0984 0.136112,-0.41834 0.136112,-0.41833 0.05196,-0.0362 0.05196,-0.0362 0.851875,-7.5e-4 0.851874,-7.5e-4 -0.03202,0.0518 -0.03202,0.0518 -0.165672,0.47727 -0.16567,0.47726 -0.202468,0.56598 -0.202469,0.56598 -0.09032,0.27069 -0.09032,0.27069 -0.204415,0.59058 -0.204414,0.59059 -0.04234,0.0984 -0.04234,0.0984 -0.134232,0.39373 -0.134233,0.39373 -0.219178,0.61519 -0.219177,0.6152 -0.0714,0.24607 -0.0714,0.24608 -0.06243,0.12304 -0.06243,0.12304 -0.113889,0.36912 -0.113889,0.36912 -0.06215,0.14764 -0.06215,0.14765 -0.156179,0.46755 -0.15618,0.46755 -0.06515,0.14764 -0.06515,0.14765 -0.03548,0.17226 -0.03548,0.17225 -0.04113,0.0514 -0.04113,0.0514 -0.172448,0.51461 -0.172448,0.51462 -0.226373,0.6398 -0.226372,0.63981 -0.06639,0.19686 -0.0664,0.19686 -0.22771,0.63981 -0.22771,0.6398 -0.168352,0.49216 -0.168351,0.49215 -0.225992,0.63981 -0.225991,0.6398 -0.150045,0.44294 -0.150044,0.44294 -0.0693,0.15508 -0.0693,0.15509 v 0.059 0.0589 l -0.07049,0.15509 -0.07049,0.15509 -0.153555,0.44294 -0.153555,0.44294 -0.122532,0.36912 -0.122533,0.36911 -0.04377,0.0984 -0.04377,0.0984 -0.157709,0.46754 -0.15771,0.46755 -0.07244,0.22147 -0.07244,0.22147 -0.06354,0.14765 -0.06354,0.14765 -0.133004,0.41833 -0.133004,0.41833 -0.04682,0.0896 -0.04682,0.0896 -0.142216,0.42716 -0.142217,0.42717 -0.22758,0.63981 -0.227581,0.6398 -0.07284,0.24608 -0.07284,0.24608 -0.04842,0.0878 -0.04842,0.0878 -0.168561,0.50275 -0.168562,0.50275 -0.22706,0.6398 -0.227061,0.63981 -0.0507,0.17225 -0.0507,0.17226 -0.09963,0.23377 -0.09963,0.23378 h -0.880759 -0.880759 l 0.03307,-0.13535 z m 3.060958,0.0717 0.05284,-0.0637 0.172935,-0.51461 0.172934,-0.51462 0.121511,-0.34451 0.121511,-0.34451 0.278779,-0.78745 0.278779,-0.78745 0.08994,-0.27069 0.08994,-0.27069 0.227458,-0.6398 0.227458,-0.6398 0.07397,-0.22147 0.07397,-0.22147 0.04335,-0.0984 0.04336,-0.0984 0.149187,-0.44294 0.149187,-0.44294 0.176808,-0.51676 0.176808,-0.51677 0.06592,-0.14764 0.06592,-0.14765 0.03548,-0.17225 0.03548,-0.17226 0.04201,-0.0524 0.04201,-0.0524 0.146322,-0.43973 0.146323,-0.43973 0.226853,-0.63981 0.226854,-0.6398 0.115789,-0.34451 0.115789,-0.34451 0.202795,-0.56598 0.202795,-0.56598 0.172917,-0.51676 0.172915,-0.51677 0.04342,-0.0984 0.04342,-0.0984 0.08225,-0.24608 0.08225,-0.24608 0.165539,-0.46754 0.165539,-0.46755 0.226641,-0.63981 0.226642,-0.6398 0.09152,-0.27069 0.09152,-0.27068 0.303921,-0.86128 0.303922,-0.86127 0.04965,-0.17226 0.04965,-0.17225 0.03801,-0.0492 0.03801,-0.0492 0.07493,-0.24608 0.07493,-0.24608 0.20481,-0.59059 0.20481,-0.59058 0.04234,-0.0984 0.04233,-0.0984 0.134233,-0.39372 0.134233,-0.39373 0.219177,-0.61519 0.219178,-0.6152 0.07112,-0.24608 0.07112,-0.24607 0.04952,-0.0896 0.04952,-0.0896 0.141745,-0.42717 0.141745,-0.42716 0.254236,-0.71363 0.254237,-0.71363 0.05158,-0.19686 0.05158,-0.19686 0.03961,-0.0514 0.03961,-0.0514 0.171388,-0.51462 0.171387,-0.51461 0.06364,-0.16092 0.06364,-0.16091 1.010071,0.0133 1.01007,0.0133 0.101366,0.2953 0.101366,0.29529 0.03229,0.0738 0.03229,0.0738 0.150595,0.46755 0.150594,0.46755 0.04531,0.0984 0.04531,0.0984 0.148431,0.44294 0.148432,0.44294 0.154452,0.41833 0.154451,0.41834 0.0403,0.14764 0.0403,0.14765 0.326273,0.9351 0.32627,0.9351 0.174007,0.49215 0.174002,0.49216 0.0908,0.27068 0.09081,0.27069 0.252058,0.71363 0.252063,0.71362 0.166068,0.49216 0.166074,0.49216 0.279141,0.78745 0.279146,0.78745 0.09017,0.27068 0.09018,0.27069 0.252058,0.71363 0.252063,0.71362 0.166068,0.49216 0.166074,0.49216 0.279141,0.78745 0.279146,0.78745 0.0904,0.27068 0.09039,0.27069 0.327171,0.9351 0.327172,0.93509 0.16676,0.50276 0.16675,0.50275 0.0484,0.0878 0.0484,0.0878 0.071,0.24608 0.071,0.24608 0.27749,0.78745 0.27749,0.78745 0.12249,0.36912 0.1225,0.36911 0.0481,0.0855 0.0481,0.0855 v 0.0792 0.0792 l 0.0694,0.13064 0.0694,0.13063 0.15083,0.47856 0.15084,0.47857 0.0482,0.0874 0.0482,0.0874 0.0706,0.24608 0.0706,0.24608 0.22998,0.66441 0.22997,0.66441 0.0768,0.19686 0.0768,0.19686 0.0377,0.0984 0.0377,0.0984 0.0634,0.22147 0.0634,0.22147 0.0407,0.0467 0.0407,0.0468 v 0.10224 0.10225 l 0.0661,0.0971 0.0661,0.0971 0.0511,0.19687 0.0511,0.19686 0.0362,0.0873 0.0362,0.0873 -0.8547,-0.0135 -0.85469,-0.0135 -0.12919,-0.36912 -0.1292,-0.36912 -0.15718,-0.46755 -0.15717,-0.46755 -0.0423,-0.0984 -0.0423,-0.0984 -0.12942,-0.36912 -0.12942,-0.36911 -0.14838,-0.44226 -0.14839,-0.44226 -0.0384,-0.0499 -0.0384,-0.0499 -0.0516,-0.19686 -0.0516,-0.19686 -0.2545,-0.71363 -0.254492,-0.71362 -0.09119,-0.27069 -0.09119,-0.27069 -0.178717,-0.49215 -0.178712,-0.49216 -0.198757,-0.56598 -0.198762,-0.56598 -0.06573,-0.19686 -0.06573,-0.19687 -0.09806,-0.27068 -0.09806,-0.27069 h -5.847917 -5.847916 l -0.06329,0.19687 -0.06329,0.19686 -0.06707,0.14764 -0.06707,0.14765 -0.03548,0.17226 -0.03548,0.17225 -0.04201,0.0524 -0.04201,0.0524 -0.146801,0.43973 -0.146801,0.43973 -0.201099,0.59059 -0.201099,0.59059 -0.06676,0.14765 -0.06676,0.14764 -0.03548,0.17226 -0.03548,0.17225 -0.04113,0.0514 -0.04113,0.0514 -0.172259,0.51461 -0.172258,0.51462 -0.225991,0.63981 -0.225992,0.6398 -0.149231,0.44294 -0.14923,0.44294 -0.04557,0.0984 -0.04557,0.0984 -0.07046,0.22148 -0.07045,0.22147 -0.168111,0.46754 -0.168111,0.46755 -0.03206,0.0861 -0.03205,0.0861 -0.02306,0.0738 -0.02306,0.0738 h -0.893453 -0.893452 l 0.05284,-0.0637 z m 16.045772,-10.44512 0.02411,-0.0241 -0.140127,-0.43026 -0.140127,-0.43027 -0.03237,-0.0492 -0.03238,-0.0492 -0.134875,-0.41833 -0.134881,-0.41834 -0.04322,-0.0984 -0.04323,-0.0984 -0.07397,-0.22147 -0.07397,-0.22147 -0.22746,-0.6398 -0.22746,-0.63981 -0.09047,-0.27068 -0.09047,-0.27069 -0.229138,-0.6398 -0.229138,-0.63981 -0.145811,-0.43973 -0.145807,-0.43973 -0.04201,-0.0524 -0.04202,-0.0524 -0.03548,-0.17225 -0.03548,-0.17226 -0.06557,-0.14764 -0.06557,-0.14765 -0.129983,-0.39373 -0.12998,-0.39372 -0.09146,-0.24608 -0.09146,-0.24608 -0.03427,-0.0984 -0.03427,-0.0984 -0.240921,-0.68902 -0.240921,-0.68902 -0.149844,-0.44226 -0.149843,-0.44225 -0.03881,-0.0499 -0.03881,-0.0499 -0.03308,-0.14765 -0.03308,-0.14765 -0.200764,-0.56598 -0.200764,-0.56598 -0.04157,-0.0984 -0.04157,-0.0984 -0.122532,-0.36912 -0.122533,-0.36911 -0.152713,-0.44294 -0.152713,-0.44295 -0.04681,-0.0984 -0.04681,-0.0984 -0.115763,-0.33513 -0.115764,-0.33514 -0.06137,0.16288 -0.06137,0.16288 -0.03767,0.0984 -0.03767,0.0984 -0.102715,0.27069 -0.102716,0.27069 -0.03451,0.14436 -0.03451,0.14437 -0.06592,0.12632 -0.06592,0.12632 -2.95e-4,0.0664 -2.95e-4,0.0664 -0.073,0.15509 -0.073,0.15508 -0.06972,0.22147 -0.06973,0.22147 -0.22833,0.6398 -0.22833,0.63981 -0.146819,0.44294 -0.14682,0.44294 -0.06752,0.14765 -0.06752,0.14764 -0.03573,0.17226 -0.03573,0.17225 -0.06242,0.12304 -0.06242,0.12304 -0.151437,0.44294 -0.151437,0.44294 -0.215348,0.6152 -0.215348,0.61519 -0.158938,0.46755 -0.158937,0.46755 -0.06515,0.14765 -0.06515,0.14765 -0.03548,0.17225 -0.03548,0.17226 -0.04113,0.0514 -0.04113,0.0514 -0.172259,0.51462 -0.172258,0.51462 -0.225992,0.6398 -0.225991,0.6398 -0.149231,0.44294 -0.14923,0.44294 -0.04557,0.0984 -0.04557,0.0984 -0.0694,0.22147 -0.0694,0.22147 -0.180179,0.49215 -0.180178,0.49216 -0.0748,0.24608 -0.0748,0.24608 -0.04375,0.084 -0.04375,0.084 -0.02986,0.18671 -0.02986,0.18671 5.279478,-0.0132 5.279478,-0.0132 0.02411,-0.0241 z m 8.521271,-3.44385 v -13.95264 h 0.86127 0.86128 v 13.95264 13.95263 h -0.86128 -0.86127 z m 2.7683,0.0123 0.0124,-13.94033 0.84897,-0.0135 0.84897,-0.0135 v 13.95379 13.9538 h -0.86135 -0.86137 z m 33.79893,0.97233 v -12.968 l -3.58044,-0.0126 -3.58044,-0.0126 -0.0135,-0.79976 -0.0135,-0.79975 h 9.32758 9.32759 v 0.81206 0.81206 h -3.49431 -3.49432 v 12.96832 12.96832 h -0.86127 -0.86127 v -12.96832 -12.96832 h -0.51677 -0.51676 v 12.96832 12.96832 h -0.86128 -0.86127 z m -17.69791,10.89304 -0.0354,-0.0573 -0.0233,-0.72471 -0.0233,-0.72471 0.24028,-0.0288 0.24029,-0.0288 0.52983,-0.0319 0.52983,-0.0319 0.0267,-0.0433 0.0268,-0.0433 0.13244,-5.9e-4 0.13244,-5.9e-4 0.24607,-0.0707 0.24608,-0.0707 0.24608,-0.0839 0.24608,-0.0839 0.0738,-0.0583 0.0738,-0.0582 0.15995,-0.0633 0.15995,-0.0633 v -0.0399 -0.0399 l 0.11073,-0.0326 0.11074,-0.0326 0.34451,-0.35512 0.34451,-0.35513 0.17651,-0.32125 0.17651,-0.32124 0.10648,-0.42454 0.10648,-0.42455 v -0.40008 -0.40007 l -0.0978,-0.47528 -0.0978,-0.47529 -0.11346,-0.27068 -0.11345,-0.27069 -0.0914,-0.17225 -0.0914,-0.17226 -0.25659,-0.34451 -0.25659,-0.34451 -0.41271,-0.41283 -0.41271,-0.41283 -0.3199,-0.25296 -0.3199,-0.25296 -0.12304,-0.0834 -0.12304,-0.0834 -0.34451,-0.24698 -0.34451,-0.24699 -0.0563,-4e-4 -0.0562,-3.9e-4 -0.0283,-0.0738 -0.0283,-0.0738 h -0.0939 -0.094 l -0.0636,-0.0767 -0.0636,-0.0767 -0.15157,-0.0709 -0.15156,-0.0709 -0.14765,-0.0977 -0.14765,-0.0977 -0.24607,-0.12177 -0.24608,-0.12177 -0.26135,-0.14475 -0.26135,-0.14475 -0.0832,-0.0294 -0.0832,-0.0294 -0.19686,-0.11653 -0.19687,-0.11652 -0.54137,-0.27642 -0.54137,-0.27642 -0.0738,-0.0466 -0.0738,-0.0466 -0.0738,-0.0305 -0.0738,-0.0305 -0.19686,-0.11998 -0.19686,-0.11998 -0.19686,-0.0999 -0.19687,-0.0999 -0.19686,-0.1198 -0.19686,-0.11979 -0.0984,-0.0459 -0.0984,-0.0459 -0.56598,-0.37201 -0.56598,-0.372 -0.46448,-0.35979 -0.46448,-0.35978 -0.4986,-0.49216 -0.4986,-0.49215 -0.27608,-0.37616 -0.27607,-0.37616 -0.21878,-0.41129 -0.21877,-0.41129 -0.14847,-0.44294 -0.14846,-0.44295 -0.0537,-0.22147 -0.0536,-0.22147 -0.0496,-0.2889 -0.0496,-0.2889 -0.0299,-0.44934 -0.0299,-0.44933 0.0544,-0.46754 0.0544,-0.46755 0.047,-0.26585 0.047,-0.26585 0.10398,-0.34935 0.10397,-0.34934 0.0651,-0.14765 0.0651,-0.14765 0.14033,-0.28227 0.14032,-0.28227 0.074,-0.13606 0.074,-0.13606 0.23135,-0.34451 0.23134,-0.34451 0.35075,-0.38142 0.35074,-0.38143 h 0.0391 0.039 l 0.19068,-0.17464 0.19067,-0.17465 0.32358,-0.21908 0.32358,-0.21908 h 0.047 0.047 l 0.0843,-0.0984 0.0843,-0.0984 h 0.0698 0.0698 l 0.26292,-0.1349 0.26293,-0.13491 0.0164,-0.0374 0.0164,-0.0373 h 0.0746 0.0746 l 0.15509,-0.0696 0.15508,-0.0696 0.19686,-0.0569 0.19687,-0.0569 0.0984,-0.0428 0.0984,-0.0428 0.54137,-0.13218 0.54137,-0.13217 0.30893,-0.0253 0.30892,-0.0253 0.0263,-0.0425 0.0263,-0.0425 0.0922,0.0494 0.0922,0.0494 0.12946,-0.0492 0.12946,-0.0492 h 0.67352 l 0.67351,1e-5 0.73823,0.0944 0.73824,0.0944 0.49215,0.13154 0.49216,0.13154 0.44294,0.14673 0.44294,0.14673 0.56598,0.2727 0.56598,0.27269 0.54137,0.36064 0.54138,0.36064 0.43489,0.40461 0.43489,0.40462 0.25707,0.32424 0.25708,0.32425 0.18104,0.27491 0.18103,0.27492 0.15967,0.34028 0.15967,0.34028 0.0176,0.0379 0.0176,0.0379 -1.09311,-0.0133 -1.09312,-0.0132 -0.0802,-0.1988 -0.0802,-0.1988 -0.12017,-0.19493 -0.12017,-0.19492 -0.17398,-0.21556 -0.17399,-0.21555 -0.3014,-0.252 -0.3014,-0.25199 -0.0935,-0.0606 -0.0935,-0.0606 -0.19686,-0.13146 -0.19687,-0.13146 -0.46754,-0.21895 -0.46755,-0.21896 -0.13064,-0.0688 -0.13063,-0.0688 h -0.10024 -0.10023 l -0.0268,-0.0433 -0.0268,-0.0433 -0.11146,-0.0259 -0.11147,-0.0259 -0.49215,-0.12287 -0.49216,-0.12288 -0.35394,-0.054 -0.35393,-0.0539 -0.77803,0.002 -0.77802,0.002 -0.54137,0.0693 -0.54138,0.0692 -0.19686,0.0549 -0.19686,0.0549 -0.17226,0.041 -0.17225,0.0411 -0.27069,0.10016 -0.27068,0.10016 -0.17226,0.0801 -0.17225,0.0801 -0.0738,0.0462 -0.0738,0.0462 -0.12304,0.0491 -0.12304,0.0491 -0.0738,0.0496 -0.0738,0.0496 -0.12304,0.0596 -0.12304,0.0596 -0.36178,0.29178 -0.36177,0.29178 -0.27245,0.27578 -0.27245,0.27577 -0.25275,0.39373 -0.25276,0.39372 -0.10531,0.27069 -0.10531,0.27068 -0.0978,0.2953 -0.0978,0.29529 -0.0607,0.55534 -0.0607,0.55534 0.058,0.52741 0.058,0.5274 0.11977,0.3974 0.11976,0.39739 0.0989,0.2236 0.0989,0.22361 0.0744,0.0617 0.0744,0.0617 v 0.0683 0.0683 l 0.17961,0.25787 0.17961,0.25788 0.23633,0.29927 0.23634,0.29927 0.49119,0.47147 0.4912,0.47146 0.38469,0.2874 0.38469,0.2874 0.10656,0.0738 0.10656,0.0738 0.22111,0.15517 0.2211,0.15517 0.10305,0.0327 0.10305,0.0327 v 0.0452 0.0452 l 0.15996,0.0743 0.15995,0.0743 0.15995,0.0986 0.15995,0.0987 0.15995,0.0983 0.15995,0.0983 0.19686,0.0993 0.19686,0.0993 0.19687,0.11757 0.19686,0.11756 0.24608,0.12796 0.24608,0.12796 0.29529,0.16995 0.29529,0.16995 0.11127,0.0504 0.11127,0.0503 0.4055,0.22975 0.40549,0.22975 0.59059,0.34421 0.59059,0.34421 0.17225,0.10913 0.17226,0.10912 0.51676,0.33903 0.51677,0.33902 0.29529,0.21914 0.29529,0.21914 0.43459,0.37158 0.43458,0.37158 0.35702,0.42988 0.35701,0.42989 0.0939,0.18531 0.0939,0.18531 0.0715,0.0882 0.0715,0.0882 0.0674,0.18246 0.0674,0.18246 0.11912,0.36912 0.11913,0.36912 0.0565,0.41833 0.0565,0.41833 -0.0266,0.76284 -0.0266,0.76285 -0.12542,0.46755 -0.12541,0.46754 -0.18826,0.36912 -0.18825,0.36912 -0.0946,0.14765 -0.0946,0.14764 -0.23979,0.28183 -0.23978,0.28182 -0.30373,0.24148 -0.30374,0.24148 -0.47237,0.25223 -0.47236,0.25222 -0.3643,0.12437 -0.36431,0.12436 -0.39372,0.0937 -0.39373,0.0937 -0.24647,0.0492 -0.24648,0.0492 -0.51636,0.0295 -0.51637,0.0295 -0.18159,0.0229 -0.18159,0.0229 -0.0354,-0.0573 z"
         style="fill:#000000;stroke-width:0.04921565" />
    </g>
  </g>
</svg>
