<!DOCTYPE svg PUBLIC "-//W3C//DTD SVG 20010904//EN" "http://www.w3.org/TR/2001/REC-SVG-20010904/DTD/svg10.dtd">
<svg version="1.0" xmlns="http://www.w3.org/2000/svg" width="1600px" height="924px" viewBox="0 0 16000 9240" preserveAspectRatio="xMidYMid meet">
<g id="layer1" fill="#656565" stroke="none">
 <path d="M2540 4635 c-184 -29 -299 -60 -475 -125 -232 -86 -291 -117 -475 -257 -103 -77 -240 -212 -240 -235 0 -8 6 -21 13 -30 14 -18 104 -68 122 -68 21 0 229 106 245 125 18 22 115 85 130 85 6 0 26 11 44 25 42 32 190 96 287 125 179 54 517 76 759 50 52 -5 196 -19 320 -30 231 -20 493 -65 660 -113 47 -14 119 -30 160 -37 41 -6 94 -18 118 -26 44 -14 62 -12 62 8 0 5 -35 48 -77 95 -72 79 -85 88 -198 144 -67 32 -125 59 -131 59 -5 0 -29 11 -54 24 -25 13 -94 38 -155 55 -60 17 -153 45 -205 61 -52 16 -142 36 -200 45 -58 9 -140 22 -184 30 -118 22 -349 18 -526 -10z"/>
 <path d="M4261 4437 c-32 -16 -32 -29 0 -44 20 -10 34 -10 60 -2 62 21 60 29 -16 52 -11 4 -31 1 -44 -6z"/>
 <path d="M4365 4390 c-15 -24 22 -41 106 -50 46 -5 94 -12 105 -16 26 -7 39 9 21 25 -31 25 -221 59 -232 41z"/>
 <path d="M4235 4341 c-7 -12 1 -17 45 -26 19 -4 40 -11 45 -15 18 -12 162 -60 183 -60 12 0 24 -4 27 -10 3 -5 19 -10 35 -10 16 0 32 -4 35 -10 3 -5 19 -10 34 -10 15 0 32 -5 39 -12 9 -9 15 -9 25 1 10 10 7 16 -12 32 -13 10 -30 19 -39 19 -9 0 -34 6 -57 14 -53 19 -328 96 -342 96 -7 0 -14 -4 -18 -9z"/>
 <path d="M697 2383 c-17 -20 -14 -67 17 -263 23 -144 44 -229 82 -339 17 -52 30 -100 27 -108 -3 -7 2 -16 11 -19 9 -3 16 -10 16 -15 0 -4 14 -32 31 -61 17 -29 32 -57 33 -63 5 -28 62 -119 103 -165 12 -14 34 -47 48 -75 15 -27 32 -55 39 -60 7 -6 17 -21 21 -35 13 -42 46 -82 62 -76 24 10 96 -15 128 -44 59 -53 95 -45 48 11 -26 30 -28 39 -27 113 0 45 8 101 16 126 33 94 35 87 -57 200 -47 57 -98 114 -114 127 -16 13 -42 44 -57 70 -15 27 -40 61 -56 76 -15 16 -31 41 -34 55 -3 15 -10 36 -15 48 -6 11 -9 24 -8 30 2 8 -7 32 -41 109 -32 74 -81 205 -86 231 -7 39 -79 124 -104 124 -10 0 -22 5 -25 10 -10 16 -40 12 -58 -7z"/>
 <path d="M3880 1723 c-25 -9 -40 -35 -40 -70 0 -18 -14 -64 -31 -101 -40 -86 -53 -168 -32 -201 12 -19 21 -22 49 -18 19 3 34 2 34 -2 0 -16 152 -182 180 -196 25 -13 31 -12 72 14 55 35 84 74 97 130 5 24 19 53 31 66 29 31 20 59 -15 53 -36 -7 -113 35 -145 79 -21 29 -30 55 -35 108 -7 64 -11 73 -47 108 -38 36 -74 46 -118 30z"/>
 <path d="M3494 1299 c-2 -4 6 -15 18 -25 25 -23 59 -76 106 -164 49 -93 62 -104 145 -124 94 -22 136 -47 144 -86 3 -17 10 -33 15 -36 23 -14 178 176 178 218 0 27 -13 29 -39 4 l-26 -24 -67 41 c-48 29 -68 47 -68 61 -1 36 -38 106 -62 116 -27 11 -338 28 -344 19z"/>
 <path d="M1512 1058 c-17 -17 -15 -59 3 -85 9 -12 14 -26 13 -32 -2 -5 5 -16 16 -24 15 -11 17 -17 7 -35 -6 -12 -20 -22 -31 -22 -34 0 -30 -16 15 -66 25 -27 45 -52 45 -56 0 -16 70 -117 95 -136 14 -11 25 -27 25 -35 0 -21 46 -74 71 -82 11 -4 56 -29 99 -56 44 -27 83 -49 87 -49 5 0 33 -15 63 -33 68 -40 238 -112 316 -132 32 -8 84 -15 116 -15 l58 0 21 45 22 46 -30 42 c-18 25 -29 54 -29 72 1 28 4 30 40 30 32 0 40 4 48 25 5 14 6 41 3 60 l-6 35 22 -35 c40 -62 79 -262 59 -299 -9 -17 -8 -22 5 -27 8 -3 23 -3 33 2 9 4 24 6 31 5 8 -2 21 5 28 15 10 14 16 15 25 6 22 -22 48 -13 63 22 8 18 23 36 35 39 24 6 25 21 6 75 -8 22 -12 57 -9 78 7 56 -22 112 -108 206 -69 75 -96 110 -150 196 -12 17 -25 32 -29 32 -4 0 -13 14 -19 30 l-10 31 -65 -7 c-55 -6 -71 -3 -110 15 -56 28 -77 25 -89 -13 -10 -29 5 -116 23 -141 13 -18 21 -93 10 -100 -5 -3 -10 -17 -10 -31 0 -29 -30 -33 -59 -6 -10 9 -36 28 -56 42 -20 14 -62 47 -92 73 -56 49 -78 55 -97 25 -8 -13 -6 -21 7 -35 28 -28 67 -92 84 -137 9 -22 25 -53 35 -68 13 -18 18 -44 18 -87 l0 -61 -32 0 c-32 0 -55 21 -193 175 -24 28 -89 100 -145 161 -55 62 -100 115 -100 119 0 5 -11 23 -25 41 -14 18 -25 35 -25 39 0 3 -18 35 -41 70 -40 65 -62 78 -87 53z m891 -420 c-26 -66 -40 -88 -54 -88 -21 0 6 97 37 131 36 40 44 21 17 -43z m108 -110 c6 -24 13 -46 16 -51 2 -4 -11 -6 -29 -5 -65 6 -91 98 -28 98 26 0 31 -5 41 -42z"/>
 </g>
<g id="layer2" fill="#b8b8b8" stroke="none">
 <path d="M15471 9097 c-8 -11 0 -28 39 -76 27 -34 54 -80 60 -102 9 -32 21 -46 63 -74 93 -60 151 -125 181 -205 l18 -45 -34 30 c-57 52 -124 94 -230 144 -138 65 -198 74 -433 68 -207 -5 -182 0 -445 -94 -186 -67 -749 -327 -920 -424 -19 -11 -77 -41 -129 -65 -51 -25 -136 -70 -189 -100 -52 -30 -134 -75 -181 -100 -47 -24 -116 -61 -153 -82 -37 -20 -125 -68 -195 -106 -70 -38 -166 -92 -213 -120 -47 -27 -110 -63 -140 -78 -30 -16 -68 -37 -85 -48 -36 -23 -118 -70 -205 -117 -36 -20 -76 -44 -89 -54 -13 -11 -27 -19 -32 -19 -5 0 -55 -27 -111 -60 -141 -83 -141 -84 -243 -141 -49 -27 -117 -66 -150 -86 -130 -78 -348 -205 -500 -293 -88 -51 -187 -109 -220 -130 -33 -20 -100 -61 -150 -89 -129 -75 -267 -158 -290 -174 -11 -8 -74 -45 -140 -82 -66 -37 -167 -95 -225 -128 -150 -86 -280 -157 -286 -157 -3 0 -18 -8 -32 -19 -24 -16 -117 -71 -342 -201 -36 -20 -112 -62 -170 -92 -58 -31 -144 -78 -190 -106 -47 -27 -130 -73 -185 -102 -171 -91 -210 -112 -220 -120 -41 -31 -865 -452 -1040 -530 -142 -64 -294 -129 -330 -140 -22 -7 -56 -20 -75 -30 -93 -47 -655 -240 -900 -309 -114 -32 -275 -69 -438 -101 -106 -20 -146 -35 -137 -50 5 -9 -9 -10 -225 -31 -160 -16 -507 -18 -675 -4 -156 12 -169 12 -173 0 -2 -5 47 -25 108 -43 190 -56 252 -97 288 -195 36 -95 33 -107 -45 -152 -38 -22 -96 -61 -130 -87 -34 -27 -69 -48 -77 -48 -20 0 -27 -13 -16 -30 6 -10 -2 -25 -25 -51 -40 -44 -58 -76 -47 -83 4 -2 45 38 91 91 70 79 106 110 218 184 127 84 137 89 188 89 53 0 168 28 312 75 40 13 75 20 78 15 3 -4 20 -4 37 0 294 73 893 230 1023 270 297 89 350 108 745 265 416 165 659 269 811 346 53 27 99 49 102 49 15 0 980 461 1257 600 136 68 266 130 274 130 3 0 124 54 268 121 839 386 2343 1065 2613 1179 368 155 985 383 1350 498 105 33 404 121 665 196 466 132 706 208 778 245 56 29 243 168 275 204 52 59 91 155 95 232 7 131 -60 320 -155 436 -21 25 -56 72 -78 104 -58 84 -124 154 -174 187 -51 32 -55 33 -70 15z m-121 -368 c19 -6 49 -17 65 -24 82 -38 141 -66 155 -75 8 -5 31 -16 51 -25 32 -14 106 -79 152 -134 12 -15 29 -21 55 -21 54 0 62 -13 62 -97 0 -80 -30 -161 -76 -204 l-24 -22 0 45 c0 67 -25 92 -123 124 -118 39 -234 43 -361 14 -87 -21 -105 -22 -164 -11 -94 17 -183 16 -282 -2 -47 -9 -121 -21 -165 -27 -136 -19 -348 -72 -392 -97 -38 -22 -270 -108 -373 -137 -82 -24 -150 -55 -514 -235 -345 -169 -437 -217 -766 -398 -173 -95 -434 -234 -775 -411 -137 -71 -421 -218 -630 -327 -400 -208 -761 -390 -804 -406 -23 -9 -24 -8 -11 4 16 15 298 181 480 282 518 287 818 477 883 557 17 21 41 44 53 51 12 7 39 24 60 38 71 48 475 294 689 419 349 203 294 172 745 421 222 122 673 356 730 378 19 8 80 36 135 64 151 74 414 184 497 207 93 26 211 49 313 60 93 10 284 3 335 -11z m-8942 -4448 c-26 -11 -74 -21 -107 -24 -33 -3 -74 -13 -91 -22 -26 -13 -30 -13 -30 -1 0 10 19 18 58 26 31 6 84 17 117 25 85 19 108 17 53 -4z"/>
 <path d="M12915 8152 c-44 -26 -100 -61 -125 -76 -24 -16 -69 -38 -100 -48 -30 -11 -62 -26 -70 -33 -57 -49 -473 -305 -840 -518 -85 -49 -256 -149 -380 -222 -450 -264 -930 -544 -1135 -662 -505 -290 -637 -364 -672 -380 -21 -10 -56 -29 -78 -43 -22 -15 -66 -41 -98 -59 -32 -17 -154 -85 -270 -150 -520 -291 -894 -484 -1422 -738 -357 -171 -768 -333 -1140 -448 -49 -16 -94 -32 -99 -37 -6 -4 -21 -8 -34 -8 -13 0 -33 -5 -44 -11 -12 -7 -44 -17 -72 -24 -89 -23 -200 -53 -216 -58 -8 -3 -24 -8 -35 -12 -11 -4 -42 -8 -70 -10 -27 -3 -54 -10 -60 -17 -5 -7 -32 -14 -59 -16 -27 -1 -55 -7 -61 -12 -7 -5 -14 -8 -16 -5 -6 5 -277 -32 -299 -41 -8 -4 -62 -8 -120 -10 -57 -2 -109 -9 -114 -14 -6 -6 -43 -10 -82 -10 -40 0 -75 -4 -78 -9 -10 -16 26 -35 60 -32 19 1 48 -4 65 -13 26 -13 49 -14 162 -5 73 6 166 11 207 11 41 0 80 3 85 7 9 5 112 21 325 50 30 4 65 13 78 20 13 7 29 10 37 8 20 -8 153 17 167 31 6 6 26 12 42 12 17 0 49 7 71 14 47 17 177 46 220 50 17 2 38 6 48 11 12 5 17 3 17 -8 0 -9 4 -18 8 -21 13 -8 84 14 113 35 14 10 29 16 32 12 4 -3 19 2 34 12 15 10 39 19 52 20 13 0 29 8 36 18 7 9 25 17 40 17 54 0 682 273 1035 450 505 253 2199 1201 2773 1551 200 123 454 277 533 324 274 163 562 340 734 452 58 37 117 75 133 83 30 16 106 73 142 106 12 11 27 18 34 16 7 -2 15 5 18 17 3 11 9 19 13 16 13 -8 32 23 26 43 -5 15 7 31 51 68 32 27 69 55 83 63 178 102 412 259 405 271 -4 6 -7 10 -8 9 -1 0 -38 -22 -82 -47z"/>
 <path d="M3065 4800 c-3 -5 0 -13 9 -16 21 -8 71 -1 71 11 0 14 -72 19 -80 5z"/>
 <path d="M2018 4666 c-42 -19 -79 -32 -81 -29 -9 8 -131 -39 -215 -83 -108 -57 -360 -235 -467 -329 -44 -38 -96 -83 -115 -99 -68 -55 -262 -291 -337 -410 -104 -164 -216 -429 -267 -626 -63 -247 -90 -552 -61 -676 9 -38 20 -136 25 -219 16 -273 37 -339 209 -689 115 -232 157 -306 239 -421 142 -200 313 -385 507 -551 90 -76 394 -279 472 -314 80 -37 89 -39 86 -22 -4 18 11 16 209 -35 l183 -47 200 0 c224 0 285 10 473 80 283 106 506 253 778 514 86 84 167 155 179 160 27 10 150 202 251 390 122 226 210 454 166 426 -5 -3 -17 -27 -27 -53 -31 -83 -202 -415 -256 -498 -28 -44 -79 -114 -112 -155 -82 -101 -363 -386 -411 -417 -21 -14 -71 -51 -111 -83 -40 -33 -96 -69 -126 -80 -30 -12 -65 -32 -79 -44 -38 -35 -54 -42 -231 -90 -184 -50 -304 -76 -347 -76 -31 0 -57 -21 -44 -35 4 -4 -64 -4 -151 -1 -169 8 -233 21 -482 102 -190 62 -281 111 -376 200 -46 44 -117 111 -159 149 -41 39 -76 73 -78 76 -2 4 -58 63 -126 132 -67 69 -156 169 -196 223 -40 55 -91 114 -112 132 -25 23 -53 65 -82 125 -24 51 -58 109 -75 131 -17 21 -31 43 -31 49 0 9 -73 167 -105 227 -7 14 -38 100 -69 192 -43 129 -59 194 -71 289 -52 420 40 959 221 1305 211 401 545 771 874 968 108 64 323 176 339 176 20 0 92 51 86 60 -8 13 -10 13 -97 -24z"/>
 <path d="M2610 4679 c-149 -11 -301 -42 -465 -96 -82 -27 -238 -95 -261 -114 -21 -17 -6 -29 21 -19 15 6 27 6 30 -1 4 -5 11 -7 16 -3 5 3 7 10 3 15 -3 5 7 9 23 8 15 -1 80 17 143 40 251 92 491 131 813 133 209 2 256 8 205 27 -32 11 -413 19 -528 10z"/>
 <path d="M2840 3914 c-27 -5 -100 -34 -169 -68 -25 -11 -72 -46 -105 -77 l-60 -56 16 -40 c19 -50 213 -287 303 -371 37 -35 90 -77 117 -94 26 -16 53 -38 58 -48 19 -35 278 -141 391 -159 135 -22 525 -3 536 26 3 8 22 13 48 13 24 0 47 5 50 10 20 32 -367 456 -473 519 -31 18 -109 75 -172 126 -123 100 -230 161 -338 194 -71 21 -161 32 -202 25z"/>
 <path d="M4743 3538 c-43 -53 -72 -148 -85 -275 -12 -116 -5 -171 21 -165 10 2 11 -35 6 -176 -6 -130 -5 -181 4 -186 21 -13 26 29 26 224 0 151 -3 194 -12 193 -18 -4 -16 10 8 57 13 25 19 49 15 64 -3 14 -2 27 3 30 15 10 21 66 9 85 -9 15 -7 32 9 82 20 61 18 95 -4 67z"/>
 <path d="M1455 2957 c-84 -14 -133 -82 -170 -232 -34 -138 -38 -117 61 -316 12 -25 12 -27 -5 -22 -27 7 -35 -13 -20 -50 53 -137 104 -239 151 -307 25 -36 66 -104 92 -151 25 -47 74 -126 108 -177 35 -50 99 -143 143 -207 43 -64 87 -120 95 -125 9 -5 48 -51 88 -102 64 -84 146 -162 257 -242 69 -51 150 -85 218 -92 61 -6 66 -5 96 22 44 40 50 88 21 182 -24 77 -53 110 -118 133 -19 6 -32 18 -32 28 0 16 -97 93 -180 142 -77 46 -370 329 -370 357 0 32 130 50 178 26 49 -24 64 -5 40 53 -6 15 -10 55 -9 88 1 33 -3 80 -9 105 -7 25 -13 57 -14 71 0 14 -13 44 -28 67 -16 23 -28 47 -28 53 0 6 -9 27 -21 45 -11 19 -18 38 -15 43 4 5 -13 37 -36 71 -24 34 -50 73 -59 86 -9 13 -51 60 -95 103 -43 44 -94 95 -113 115 -19 20 -39 36 -46 36 -7 0 -15 18 -18 41 -3 22 -13 49 -23 60 -9 10 -13 19 -9 19 5 0 -1 9 -13 20 -12 12 -22 25 -22 29 0 5 -10 15 -22 23 -18 11 -35 12 -73 5z"/>
 <path d="M4686 2631 c-12 -19 -19 -128 -8 -135 16 -10 23 9 29 73 4 36 1 61 -5 65 -6 3 -13 2 -16 -3z"/>
 <path d="M4657 2413 c-2 -4 -8 -30 -11 -58 -4 -27 -25 -120 -48 -205 -45 -172 -47 -189 -33 -190 28 -4 130 429 107 452 -5 5 -12 6 -15 1z"/>
 <path d="M4529 1903 c-43 -109 -69 -197 -61 -205 6 -6 12 -6 15 -1 9 15 77 201 77 211 0 25 -21 21 -31 -5z"/>
 <path d="M2746 1151 c-3 -4 3 -16 14 -26 11 -10 20 -23 20 -30 0 -28 131 -129 243 -189 79 -42 86 -43 128 -17 28 17 36 18 58 7 27 -14 188 -56 214 -56 8 0 17 -7 21 -15 3 -8 9 -14 13 -13 16 3 63 -14 74 -28 6 -8 22 -14 35 -14 14 0 24 -6 24 -14 0 -19 48 -68 60 -61 6 3 10 2 10 -4 0 -5 -5 -13 -10 -16 -18 -11 -1 -23 35 -23 27 0 41 8 65 34 45 51 48 79 14 115 -15 16 -32 29 -37 29 -6 0 -49 18 -97 40 -48 22 -134 53 -191 70 -119 33 -204 62 -339 113 -52 20 -124 43 -160 52 -36 9 -89 25 -118 36 -59 21 -69 23 -76 10z"/>
 <path d="M3627 488 c-87 -72 -107 -105 -40 -66 52 31 148 123 136 131 -5 3 -49 -26 -96 -65z"/>
 <path d="M2598 453 c-3 -4 -1 -42 3 -83 15 -141 14 -148 -27 -167 -45 -22 -45 -37 -1 -41 28 -3 39 3 66 34 21 23 30 42 26 53 -4 9 -15 56 -25 104 -17 84 -32 119 -42 100z"/>
 <path d="M3247 241 c-56 -32 -72 -47 -60 -54 11 -7 127 55 125 68 -1 17 -16 14 -65 -14z"/>
 </g>
<g id="layer3" fill="#959595" stroke="none">
 <path d="M14931 9169 c-69 -13 -197 -58 -290 -100 -46 -22 -102 -44 -125 -50 -162 -42 -558 -237 -777 -384 -68 -45 -209 -127 -314 -182 -183 -96 -243 -132 -480 -295 -96 -66 -290 -189 -350 -222 -33 -18 -129 -97 -143 -118 -8 -11 -11 -22 -8 -25 3 -4 -3 -12 -14 -20 -11 -8 -20 -20 -20 -28 0 -9 -6 -12 -16 -8 -10 4 -17 -1 -21 -16 -3 -11 -9 -21 -13 -21 -4 0 -29 -17 -55 -39 -25 -21 -59 -45 -73 -52 -15 -8 -75 -45 -134 -84 -59 -38 -171 -109 -250 -158 -306 -187 -406 -248 -473 -287 -38 -22 -158 -94 -265 -159 -301 -185 -369 -225 -600 -359 -1071 -621 -1987 -1130 -2450 -1362 -206 -104 -678 -317 -887 -401 -95 -39 -135 -50 -166 -47 -35 2 -42 0 -39 -14 4 -24 -17 -33 -32 -12 -15 20 -36 11 -36 -16 0 -25 -30 -34 -45 -14 -10 14 -15 14 -34 5 -17 -9 -20 -16 -12 -25 6 -7 8 -16 4 -19 -12 -12 -21 -7 -19 10 1 21 -30 29 -50 12 -8 -7 -27 -14 -42 -16 -64 -8 -91 -13 -162 -28 -41 -9 -93 -23 -115 -31 -22 -7 -53 -14 -68 -14 -16 0 -41 -6 -55 -14 -33 -18 -137 -37 -156 -30 -8 3 -25 0 -38 -7 -13 -7 -48 -16 -78 -20 -213 -29 -316 -45 -325 -50 -5 -4 -44 -7 -85 -7 -41 0 -134 -5 -207 -11 -109 -9 -137 -8 -159 4 l-27 14 34 3 c53 5 35 23 -23 23 -36 0 -52 -4 -51 -12 3 -14 -24 -12 -82 5 -23 6 -72 11 -110 10 -114 -2 -415 14 -421 24 -3 4 -40 8 -82 9 -83 0 -134 8 -227 33 -34 9 -83 18 -110 21 -28 3 -104 19 -170 35 -66 17 -172 44 -235 60 -436 110 -573 130 -895 130 -373 -1 -587 -39 -792 -143 -16 -7 -84 -41 -153 -75 -256 -126 -398 -225 -597 -415 -195 -188 -388 -446 -517 -691 -136 -260 -221 -616 -233 -981 -8 -260 10 -394 83 -613 31 -92 62 -178 69 -192 32 -60 105 -218 105 -227 0 -6 14 -28 31 -49 18 -22 49 -76 70 -121 26 -57 57 -104 101 -150 35 -38 83 -97 108 -132 25 -34 63 -82 85 -105 229 -238 300 -309 424 -425 127 -118 154 -138 235 -176 96 -45 241 -95 420 -145 96 -26 131 -31 290 -36 188 -6 250 2 228 29 -8 10 3 15 52 25 82 15 392 99 420 114 11 6 32 21 46 34 14 12 49 32 79 44 30 11 86 47 126 80 40 32 90 69 111 83 49 31 349 336 431 437 33 41 83 111 112 154 60 92 211 389 266 521 97 236 188 548 220 763 17 108 42 750 31 779 -7 17 -8 17 -22 -1 -13 -19 -14 -19 -14 5 1 52 20 173 35 217 25 71 83 177 125 224 20 24 36 48 34 53 -4 13 62 63 185 140 111 70 117 82 80 181 -36 96 -105 151 -254 201 l-70 23 100 -7 c154 -12 505 -9 655 6 74 7 160 15 190 17 75 7 85 11 71 28 -13 15 4 20 173 51 121 23 304 67 461 113 235 69 719 238 805 282 19 10 53 23 75 30 36 11 188 76 330 140 175 78 999 499 1040 530 10 8 49 29 220 120 55 29 138 75 185 102 46 28 132 75 190 106 58 30 134 72 170 92 225 130 318 185 342 201 14 11 29 19 32 19 6 0 136 71 286 157 58 33 159 91 225 128 66 37 129 74 140 82 23 16 161 99 290 174 50 28 117 69 150 89 33 21 132 79 220 130 145 84 343 200 500 293 86 51 252 145 310 176 28 15 69 39 93 54 23 15 62 37 85 49 23 12 49 27 57 33 8 7 44 28 80 48 85 46 167 93 205 117 17 11 55 32 85 48 30 15 93 51 140 78 47 28 143 82 213 120 70 38 158 86 195 106 37 21 106 58 153 82 47 25 129 70 181 100 53 30 138 75 189 100 52 24 110 54 129 65 171 97 734 357 920 424 263 94 238 89 445 94 235 6 295 -3 433 -68 109 -51 174 -92 234 -147 49 -46 62 -35 36 31 -37 91 -115 180 -206 232 -22 14 -36 31 -43 57 -5 21 -30 63 -55 94 -26 31 -47 64 -48 72 -3 19 -69 55 -140 77 -55 17 -336 20 -415 4z m-12007 -4517 c6 -4 45 -12 86 -19 41 -6 136 -21 210 -32 74 -12 178 -35 230 -51 52 -16 145 -44 205 -61 61 -17 130 -42 155 -55 25 -13 49 -24 54 -24 6 0 64 -27 130 -59 110 -54 127 -66 189 -134 37 -42 67 -78 67 -81 0 -2 -15 0 -32 6 -18 5 -78 18 -132 28 -55 11 -130 28 -168 40 -142 43 -421 91 -648 110 -124 11 -268 25 -320 30 -242 26 -580 4 -759 -50 -97 -29 -245 -93 -287 -125 -18 -14 -38 -25 -44 -25 -15 0 -112 -63 -130 -85 -18 -21 -226 -125 -249 -124 -26 1 -106 54 -109 72 -6 33 177 199 348 316 51 35 131 77 202 107 77 32 91 43 79 58 -7 9 9 20 59 39 159 62 379 113 545 127 105 9 301 4 319 -8z m1399 -233 c7 0 2 -4 -10 -9 -11 -5 -31 -6 -44 -3 -22 6 -22 7 -3 14 10 4 25 6 32 3 8 -2 19 -4 25 -5z m145 -56 c-10 -2 -26 -2 -35 0 -10 3 -2 5 17 5 19 0 27 -2 18 -5z m-1426 -494 c108 -33 215 -94 338 -194 63 -51 141 -108 172 -126 65 -39 347 -328 416 -427 l43 -62 -37 0 c-21 0 -45 -6 -53 -14 -35 -30 -395 -47 -530 -25 -110 17 -352 115 -380 152 -7 10 -37 34 -66 52 -28 19 -78 57 -110 86 -79 73 -274 313 -294 362 l-15 40 50 46 c28 25 71 56 95 67 68 34 142 63 169 68 41 7 131 -4 202 -25z m-1507 -955 c14 -15 25 -33 25 -40 0 -7 7 -17 15 -22 9 -4 19 -28 23 -52 5 -30 14 -48 28 -55 21 -11 220 -207 244 -241 74 -105 99 -147 94 -155 -3 -5 4 -24 15 -43 12 -18 21 -39 21 -45 0 -7 14 -32 30 -56 18 -26 26 -46 20 -50 -6 -4 -4 -18 7 -38 12 -22 18 -60 19 -122 1 -49 7 -103 14 -119 15 -41 9 -48 -24 -31 -52 27 -196 -3 -196 -41 0 -35 303 -331 390 -382 67 -39 143 -100 160 -128 8 -14 40 -37 70 -52 53 -27 56 -30 78 -97 29 -87 25 -150 -10 -178 -48 -39 -194 -2 -303 79 -97 70 -183 149 -220 201 -22 31 -62 80 -89 107 -70 73 -291 393 -362 525 -26 47 -67 115 -92 151 -45 65 -94 163 -147 294 -18 47 -11 60 15 26 16 -21 20 -22 25 -9 4 10 -17 65 -51 133 -61 126 -61 123 -30 246 32 127 75 205 118 213 61 12 89 7 113 -19z m-780 -544 c3 -5 15 -10 25 -10 23 0 75 -65 84 -105 6 -26 59 -167 86 -230 35 -79 43 -102 41 -117 -1 -9 3 -19 9 -23 5 -3 10 -15 10 -26 0 -24 48 -109 61 -109 5 0 22 -23 37 -50 16 -28 43 -61 59 -73 27 -20 78 -78 160 -183 28 -36 31 -45 23 -75 -38 -144 -42 -167 -36 -219 5 -35 14 -62 28 -77 31 -33 10 -28 -27 5 -32 30 -103 56 -128 47 -9 -4 -20 5 -31 28 -9 19 -16 38 -16 41 0 3 -16 26 -35 52 -19 25 -35 54 -35 64 0 11 -9 24 -19 30 -27 14 -110 140 -117 175 -1 6 -16 34 -33 63 -17 29 -31 56 -31 60 0 5 -6 14 -12 20 -7 7 -13 18 -13 25 0 7 -17 62 -37 122 -42 129 -50 166 -77 340 -26 173 -31 221 -24 229 10 10 41 7 48 -4z m3233 -688 c25 -23 30 -38 37 -97 6 -57 13 -79 42 -117 37 -51 110 -94 151 -90 27 3 29 -14 3 -28 -12 -6 -23 -29 -30 -60 -14 -65 -34 -95 -84 -125 -36 -21 -43 -22 -66 -10 -26 13 -117 112 -159 172 -20 28 -27 31 -56 26 -23 -3 -35 -1 -38 8 -10 27 11 125 41 191 17 37 31 83 31 102 0 61 75 78 128 28z m-156 -418 c18 -5 48 -72 48 -108 0 -17 9 -29 28 -39 15 -7 50 -28 79 -45 50 -30 52 -30 69 -11 9 10 19 17 22 14 7 -7 -58 -105 -102 -152 l-39 -43 -19 40 c-23 45 -51 61 -158 87 -36 9 -70 21 -77 27 -6 6 -27 41 -46 77 -43 81 -65 117 -91 148 l-21 23 145 -6 c80 -4 152 -9 162 -12z m-892 -179 c36 -9 108 -32 160 -52 135 -51 220 -80 339 -113 85 -24 230 -82 300 -119 32 -17 37 -40 16 -78 -31 -56 -52 -64 -76 -30 -12 15 -24 25 -29 22 -4 -2 -19 13 -34 35 -19 28 -33 40 -51 40 -13 0 -26 4 -29 9 -12 19 -116 60 -206 81 -52 12 -107 28 -121 36 -22 11 -30 10 -58 -7 -17 -10 -37 -19 -44 -19 -44 -1 -280 153 -302 196 -6 12 -17 29 -24 38 -12 15 -7 14 40 -3 30 -11 83 -27 119 -36z m-1355 -90 c19 -30 35 -57 35 -60 0 -4 11 -21 25 -39 14 -18 25 -37 25 -41 0 -8 70 -89 145 -165 24 -25 51 -60 59 -77 9 -18 23 -33 30 -33 8 0 25 -14 38 -31 13 -18 53 -63 89 -100 52 -55 72 -69 95 -69 17 0 35 5 42 12 19 19 15 125 -6 156 -10 15 -24 43 -32 62 -12 33 -39 79 -82 142 -22 33 -22 38 -2 38 9 0 31 -15 48 -34 18 -18 50 -45 72 -59 22 -14 54 -39 71 -56 19 -18 43 -31 61 -33 27 -2 30 -5 25 -28 -3 -17 1 -31 12 -40 14 -12 19 -10 40 11 26 27 78 146 69 160 -11 19 -43 7 -73 -26 -18 -21 -31 -30 -31 -21 0 8 5 18 10 21 10 6 3 82 -10 100 -15 22 -32 106 -26 130 8 30 20 31 71 4 33 -17 52 -20 103 -15 34 3 62 1 62 -3 0 -5 23 -37 50 -71 28 -34 50 -66 50 -70 0 -5 28 -40 63 -78 103 -115 111 -125 129 -165 10 -22 18 -61 17 -90 0 -60 4 -94 14 -103 12 -12 8 -24 -9 -24 -8 0 -22 -16 -30 -35 -13 -33 -53 -53 -41 -21 7 17 -18 40 -33 31 -5 -3 -10 -15 -10 -27 0 -13 -5 -18 -14 -15 -8 3 -20 -1 -26 -9 -21 -24 -25 -16 -26 43 -1 32 -10 94 -21 138 -20 80 -69 179 -88 176 -6 -1 -10 -25 -11 -54 -1 -84 -5 -86 -28 -12 l-22 70 -44 0 c-38 0 -44 -3 -52 -27 -13 -39 31 -109 64 -101 22 6 23 6 5 -14 -23 -27 -18 -61 17 -112 28 -40 28 -41 12 -76 -16 -33 -19 -35 -69 -35 -29 0 -79 7 -111 15 -78 20 -248 92 -316 132 -30 18 -58 33 -62 33 -4 0 -42 21 -85 47 -43 26 -91 55 -108 63 -19 9 -34 28 -41 50 -6 19 -21 41 -33 49 -21 13 -91 113 -91 128 0 4 -18 28 -40 54 -29 35 -36 48 -25 52 7 3 21 18 31 32 14 22 15 28 3 43 -46 56 -65 132 -34 132 8 0 31 -25 50 -55z m1064 -758 c1 -11 -49 -57 -62 -57 -5 0 2 9 17 21 18 14 26 30 27 52 0 27 2 29 9 12 5 -11 9 -24 9 -28z"/>
 <path d="M15015 8760 c-102 -11 -220 -34 -313 -60 -83 -23 -346 -133 -497 -207 -55 -28 -116 -56 -135 -64 -57 -22 -508 -256 -730 -378 -451 -249 -396 -218 -745 -421 -212 -124 -617 -370 -689 -419 -21 -14 -46 -30 -55 -36 -42 -26 -65 -47 -75 -67 -28 -56 -288 -217 -976 -605 -223 -126 -367 -213 -385 -233 -14 -16 -16 -23 -7 -32 9 -9 50 7 169 66 173 85 769 391 1063 546 102 54 340 179 530 278 190 99 408 215 485 257 314 173 416 226 761 396 364 180 432 211 514 235 103 29 335 115 373 137 44 25 256 78 392 97 44 6 118 18 165 27 99 18 188 19 282 2 59 -11 77 -10 164 11 127 29 243 25 361 -14 92 -30 103 -42 103 -110 0 -25 5 -48 11 -52 17 -10 75 53 104 113 20 42 25 69 25 128 0 88 -17 115 -75 115 -29 0 -45 10 -103 68 -51 50 -92 79 -163 114 -116 58 -174 83 -219 96 -50 15 -241 22 -335 12z"/>
 <path d="M9184 5380 c-79 -37 -102 -54 -87 -63 10 -6 168 67 177 81 14 23 -13 18 -90 -18z"/>
 <path d="M8965 5278 c-11 -6 -31 -18 -45 -26 -14 -9 -30 -17 -35 -18 -6 -1 -60 -25 -120 -53 -70 -33 -105 -55 -99 -61 14 -14 172 51 221 92 7 5 17 7 22 4 5 -4 13 -1 17 5 3 6 22 17 40 25 33 14 42 28 26 38 -4 2 -16 0 -27 -6z"/>
 <path d="M8526 5069 c-46 -25 -36 -44 14 -26 47 16 61 26 55 38 -9 13 -25 11 -69 -12z"/>
 <path d="M7088 4475 c-11 -11 -322 -95 -403 -109 -90 -16 -307 -58 -434 -84 -79 -16 -85 -19 -92 -46 -12 -43 -3 -48 41 -26 22 11 63 23 92 25 29 3 89 16 133 30 44 13 197 52 340 86 249 59 352 93 348 114 -2 12 -17 18 -25 10z"/>
 <path d="M6080 4233 c-74 -32 -110 -73 -64 -73 23 0 126 69 119 80 -8 12 -12 12 -55 -7z"/>
 </g>
<g id="layer4" fill="#ffffff" stroke="none">
 <path d="M0 4620 l0 -4620 8000 0 8000 0 0 4620 0 4620 -8000 0 -8000 0 0 -4620z m15341 4526 c45 -13 111 -41 186 -78 47 -23 107 -84 168 -173 22 -32 57 -79 78 -104 95 -116 162 -305 155 -436 -4 -76 -37 -162 -83 -217 -29 -35 -211 -171 -267 -199 -72 -37 -312 -113 -778 -245 -261 -75 -560 -163 -665 -196 -365 -115 -982 -343 -1350 -498 -267 -113 -1730 -773 -2610 -1178 -143 -65 -278 -125 -300 -133 -22 -7 -57 -24 -77 -36 -21 -13 -41 -23 -44 -23 -4 0 -59 -27 -123 -59 -240 -122 -1242 -601 -1258 -601 -3 0 -49 -22 -102 -49 -152 -77 -395 -181 -811 -346 -394 -157 -447 -175 -745 -265 -250 -76 -908 -241 -918 -231 -10 10 -42 3 -187 -44 -181 -58 -289 -85 -345 -85 -51 0 -60 -5 -187 -88 -80 -54 -154 -112 -187 -148 -30 -32 -75 -81 -99 -107 -25 -26 -46 -56 -46 -65 -1 -9 -10 -44 -20 -76 -14 -46 -16 -64 -7 -78 10 -17 7 -58 -7 -83 -9 -15 -12 -68 -15 -315 -2 -124 -8 -265 -15 -315 -7 -58 -7 -94 -1 -101 10 -12 3 -60 -11 -79 -4 -5 -10 -47 -13 -93 -3 -45 -10 -89 -16 -96 -6 -7 -8 -16 -5 -19 3 -3 2 -12 -2 -19 -5 -7 -7 -24 -6 -38 3 -29 -53 -225 -74 -257 -8 -12 -16 -33 -18 -45 -3 -13 -5 -25 -6 -28 -2 -3 -2 -9 -1 -14 3 -15 -41 -130 -57 -148 -8 -10 -11 -18 -7 -18 5 0 4 -5 -3 -12 -7 -7 -12 -21 -12 -31 0 -29 -95 -248 -167 -387 -82 -156 -234 -400 -249 -400 -7 0 -85 -70 -174 -156 -278 -266 -497 -412 -782 -518 -188 -70 -249 -80 -473 -80 l-200 0 -180 46 c-188 48 -233 56 -250 46 -18 -11 -137 55 -301 167 -299 205 -501 401 -706 690 -82 115 -124 189 -239 421 -172 350 -193 416 -209 689 -5 83 -16 181 -25 219 -29 124 -2 429 61 676 51 197 163 462 267 626 73 116 255 339 320 393 18 14 68 58 112 96 44 39 148 118 230 177 194 137 351 221 438 232 17 3 61 17 97 32 36 15 77 28 91 30 14 2 48 13 75 24 151 65 397 94 749 87 319 -6 365 -13 815 -127 63 -16 169 -43 235 -60 66 -16 142 -32 170 -35 27 -3 76 -12 110 -21 93 -25 144 -33 227 -33 42 -1 79 -5 82 -9 5 -8 150 -17 441 -28 50 -1 97 -4 105 -4 8 -1 85 5 171 14 86 9 164 14 173 10 9 -3 29 -1 44 5 30 13 304 53 311 46 2 -3 10 0 16 5 7 6 35 11 63 13 28 2 58 9 67 17 9 8 40 14 68 15 29 0 63 7 76 14 22 12 63 24 227 66 28 7 60 17 72 24 11 6 31 11 44 11 13 0 28 4 34 8 5 5 50 21 99 37 690 214 1454 568 2562 1186 116 65 238 133 270 150 32 18 76 44 98 59 22 14 57 33 78 43 35 16 167 90 672 380 205 118 685 398 1135 662 124 73 295 173 380 222 367 213 783 469 840 518 8 7 41 22 72 33 31 11 81 35 110 54 29 19 87 54 128 77 94 53 80 44 201 125 57 39 190 114 294 169 105 55 246 137 314 182 219 147 615 342 777 384 23 6 79 28 125 50 93 42 221 87 290 100 74 15 360 13 410 -3z"/>
 </g>

</svg>